<svg xmlns="http://www.w3.org/2000/svg" viewBox="0 0 384 384"><defs><style>.cls-1{fill:#fff;}</style></defs><g id="Layer_2" data-name="Layer 2"><g id="Layer_1-2" data-name="Layer 1"><path class="cls-1" d="M0,384V0H384V384ZM270.57,247.91c39.67-53.1,28.68-124.39-18.76-163.62A118.9,118.9,0,0,0,79.56,245.48c17.21,23.79,40.27,39.44,68.91,46,36.18,8.33,69.34.85,99.8-21.23.93,1.13,1.72,2.27,2.69,3.24q23.84,23.88,47.71,47.75c4.34,4.37,9.37,6.68,15.55,5.36a15.26,15.26,0,0,0,12.11-11c1.9-6.19.26-11.65-4.22-16.17-10.55-10.66-21.19-21.23-31.8-31.83Z"/><path d="M270.57,247.91l19.74,19.68c10.61,10.6,21.25,21.17,31.8,31.83,4.48,4.52,6.12,10,4.22,16.17a15.26,15.26,0,0,1-12.11,11c-6.18,1.32-11.21-1-15.55-5.36Q274.85,297.35,251,273.51c-1-1-1.76-2.11-2.69-3.24-30.46,22.08-63.62,29.56-99.8,21.23-28.64-6.58-51.7-22.23-68.91-46A118.9,118.9,0,0,1,251.81,84.29C299.25,123.52,310.24,194.81,270.57,247.91Zm-94.69,14.75a86.83,86.83,0,1,0-86.78-87A86.58,86.58,0,0,0,175.88,262.66Z"/><path class="cls-1" d="M175.88,262.66a86.83,86.83,0,1,1,86.86-86.6A86.55,86.55,0,0,1,175.88,262.66Z"/></g></g></svg>