<svg xmlns="http://www.w3.org/2000/svg" viewBox="0 0 375.02 375.02"><defs><style>.cls-1{fill:#fff;}</style></defs><g id="Layer_2" data-name="Layer 2"><g id="Layer_1-2" data-name="Layer 1"><path class="cls-1" d="M375,375H0V0H375ZM238.94,250.94c1.8-.69,3-1.13,4.24-1.63,12.34-5.15,24.63-10.46,37-15.44,15.77-6.34,15.76-6.25,21.22-22.54a6.41,6.41,0,0,1,3.49-3.5c8.26-2.9,16.65-5.44,24.95-8.22,5.19-1.73,7.17-4.58,7.19-10.09q.06-12.44,0-24.86c0-5.86-2-8.59-7.7-10.46-8.2-2.7-16.45-5.26-24.6-8.11a6.47,6.47,0,0,1-3.31-3.25Q297,132.69,293,122.31a6.4,6.4,0,0,1,0-4.58c3.75-7.78,7.78-15.42,11.67-23.14,2.72-5.41,2.26-8.58-1.95-12.85Q294.13,73,285.4,64.43c-4.44-4.39-7.56-4.86-13.12-2.05-7.6,3.85-15.2,7.68-22.75,11.63a5,5,0,0,1-5,.08c-6.64-3-13.47-5.55-20.13-8.51a6.9,6.9,0,0,1-3.5-3.48C218,54,215.45,45.7,212.75,37.5c-1.79-5.44-4.6-7.55-10.2-7.57q-12.6-.08-25.22,0c-5.49,0-8.26,2-10,7.29-2.72,8.19-5.23,16.46-8.12,24.59a7.41,7.41,0,0,1-3.68,3.8c-6.64,3-13.39,5.75-20.18,8.38a6.4,6.4,0,0,1-4.58,0c-7.89-3.8-15.65-7.88-23.48-11.81-5.15-2.58-8.41-2-12.51,2q-8.7,8.63-17.32,17.32c-4.4,4.41-4.93,7.57-2.13,13.11,3.84,7.61,7.83,15.14,11.51,22.82a7,7,0,0,1,.07,5q-3.9,10.2-8.37,20.19A7,7,0,0,1,75,146.11c-8.26,2.91-16.64,5.47-24.95,8.23C45,156,43,158.76,43,164.1q-.09,12.79,0,25.58c0,5.63,1.94,8.2,7.27,10,8.09,2.68,16.16,5.38,24.29,7.9a6.1,6.1,0,0,1,4.35,4.24c2.47,6.59,5.23,13.07,8.12,19.49a3.56,3.56,0,0,0,3.22,1.39c9.27-3.88,18.44-8,27.87-12.12-.81-1.66-1.3-2.75-1.86-3.79-8.62-16.08-12.07-33.25-9.22-51.21,5.1-32.2,22.89-55.12,53.37-66.75,30.26-11.54,58.36-5.92,82.81,15.2,18.89,16.31,29.95,37,30.49,62.38.45,20.73-6.29,39.28-18.64,55.74C250.23,238.5,244.65,244.31,238.94,250.94ZM77.68,325.76a8.55,8.55,0,0,0,1.2.24c2.31,0,4.63.05,6.94,0,28.71-.21,57.16,1.68,85.19,8.53,13.36,3.26,26.94,4,40.49.28,14.47-4,27.76-10.57,40.32-18.53q40.1-25.44,79.78-51.49c6.35-4.19,12-9.51,17.58-14.73,4.68-4.39,5.46-11.23,2.77-16.9-3-6.27-8.5-9.67-15.29-9a34,34,0,0,0-8.45,2.11q-31.87,12.13-63.69,24.48c-11.67,4.52-23.36,9-34.91,13.89-3.14,1.33-6.6,3.27-8.5,5.94-6.26,8.79-14.59,11.71-24.78,10.14-5.4-.83-10.69-2.37-16.05-3.45-9.76-2-19.49-5-29.58-3.16-6.43,1.17-12.72,3.12-19,4.81-3.51.94-6.32-.14-7.25-3s.45-5.5,3.87-6.8c14.3-5.42,28.88-7.61,44-4.09,8.88,2.06,17.8,4,26.77,5.67,7.35,1.35,15.75-5.08,17.82-13.16,1.6-6.28-1.86-10.84-10.43-13.74-.57-.2-1.15-.37-1.74-.54-15.37-4.64-30.72-9.33-46.12-13.87a97.05,97.05,0,0,0-14.86-3.56c-10.21-1.3-19.45,2.36-28.29,6.92-11.07,5.71-22.37,10.79-34.69,13.11-2.84.54-3.32,1.91-3.31,4.47.09,23.88.05,47.75.06,71.63C77.52,323.24,77.62,324.43,77.68,325.76ZM22.45,290.19c0,14.73-.05,29.46,0,44.19,0,6.43,3.55,9.87,10,9.92q12.24.09,24.48,0c6.76,0,10.25-3.59,10.26-10.47q0-43.29,0-86.57c0-7-3.51-10.42-10.64-10.45q-11.51,0-23,0c-8,0-11.09,3.09-11.1,11Q22.42,269,22.45,290.19ZM236,153.51l1.92,1.26c0,2.6-.07,5.2,0,7.8.13,3.7,2,6,5,6.07s5.31-2.25,5.36-6.07c.1-6.93.11-13.88,0-20.81-.07-4.24-1.87-5.91-6.15-5.94-6.82-.06-13.64,0-20.46,0-4.05,0-6.18,1.82-6.19,5.06s2.19,5.15,6.11,5.23c2.59.06,5.19,0,7.87,0l-44.74,44.56c-4.57-4.59-9.5-9.61-14.51-14.55-3.2-3.15-5.75-3.21-8.83-.16Q147,190.24,132.74,204.63c-2.53,2.55-2.75,5.63-.75,7.78,2.2,2.37,5.22,2.27,8-.47q9.24-9.1,18.34-18.34c2.37-2.41,4.5-5,7-7.91,5.25,5.3,9.77,9.89,14.31,14.44,4.9,4.92,6.68,4.89,11.69-.11q21.44-21.45,42.84-42.92C235.1,156.19,235.43,154.72,236,153.51Z"/><path d="M238.94,250.94c5.71-6.63,11.29-12.44,16.09-18.83,12.35-16.46,19.09-35,18.64-55.74-.54-25.41-11.6-46.07-30.49-62.38-24.45-21.12-52.55-26.74-82.81-15.2-30.48,11.63-48.27,34.55-53.37,66.75-2.85,18,.6,35.13,9.22,51.21.56,1,1,2.13,1.86,3.79-9.43,4.14-18.6,8.24-27.87,12.12A3.56,3.56,0,0,1,87,231.27c-2.89-6.42-5.65-12.9-8.12-19.49a6.1,6.1,0,0,0-4.35-4.24c-8.13-2.52-16.2-5.22-24.29-7.9-5.33-1.76-7.24-4.33-7.27-10q-.08-12.8,0-25.58c0-5.34,2-8.09,7.11-9.76,8.31-2.76,16.69-5.32,24.95-8.23a7,7,0,0,0,3.51-3.48q4.45-10,8.37-20.19a7,7,0,0,0-.07-5c-3.68-7.68-7.67-15.21-11.51-22.82-2.8-5.54-2.27-8.7,2.13-13.11q8.64-8.69,17.32-17.32c4.1-4.07,7.36-4.61,12.51-2,7.83,3.93,15.59,8,23.48,11.81a6.4,6.4,0,0,0,4.58,0c6.79-2.63,13.54-5.39,20.18-8.38a7.41,7.41,0,0,0,3.68-3.8c2.89-8.13,5.4-16.4,8.12-24.59,1.75-5.26,4.52-7.26,10-7.29q12.61-.08,25.22,0c5.6,0,8.41,2.13,10.2,7.57,2.7,8.2,5.25,16.46,8.12,24.6a6.9,6.9,0,0,0,3.5,3.48c6.66,3,13.49,5.52,20.13,8.51a5,5,0,0,0,5-.08c7.55-4,15.15-7.78,22.75-11.63,5.56-2.81,8.68-2.34,13.12,2.05q8.72,8.61,17.32,17.31c4.21,4.27,4.67,7.44,1.95,12.85-3.89,7.72-7.92,15.36-11.67,23.14a6.4,6.4,0,0,0,0,4.58q4,10.37,8.49,20.53a6.47,6.47,0,0,0,3.31,3.25c8.15,2.85,16.4,5.41,24.6,8.11,5.67,1.87,7.68,4.6,7.7,10.46q0,12.43,0,24.86c0,5.51-2,8.36-7.19,10.09-8.3,2.78-16.69,5.32-24.95,8.22a6.41,6.41,0,0,0-3.49,3.5c-5.46,16.29-5.45,16.2-21.22,22.54-12.41,5-24.7,10.29-37,15.44C242,249.81,240.74,250.25,238.94,250.94Z"/><path d="M77.68,325.76c-.06-1.33-.16-2.52-.16-3.71,0-23.88,0-47.75-.06-71.63,0-2.56.47-3.93,3.31-4.47,12.32-2.32,23.62-7.4,34.69-13.11,8.84-4.56,18.08-8.22,28.29-6.92a97.05,97.05,0,0,1,14.86,3.56c15.4,4.54,30.75,9.23,46.12,13.87.59.17,1.17.34,1.74.54,8.57,2.9,12,7.46,10.43,13.74-2.07,8.08-10.47,14.51-17.82,13.16-9-1.65-17.89-3.61-26.77-5.67-15.16-3.52-29.74-1.33-44,4.09-3.42,1.3-4.83,3.84-3.87,6.8s3.74,3.91,7.25,3c6.33-1.69,12.62-3.64,19-4.81,10.09-1.82,19.82,1.2,29.58,3.16,5.36,1.08,10.65,2.62,16.05,3.45,10.19,1.57,18.52-1.35,24.78-10.14,1.9-2.67,5.36-4.61,8.5-5.94,11.55-4.85,23.24-9.37,34.91-13.89q31.82-12.33,63.69-24.48a34,34,0,0,1,8.45-2.11c6.79-.7,12.31,2.7,15.29,9,2.69,5.67,1.91,12.51-2.77,16.9-5.57,5.22-11.23,10.54-17.58,14.73q-39.64,26.1-79.78,51.49c-12.56,8-25.85,14.55-40.32,18.53-13.55,3.73-27.13,3-40.49-.28-28-6.85-56.48-8.74-85.19-8.53-2.31,0-4.63,0-6.94,0A8.55,8.55,0,0,1,77.68,325.76Z"/><path d="M22.44,290.19q0-21.19,0-42.37c0-7.92,3.14-11,11.1-11q11.52,0,23,0c7.13,0,10.63,3.43,10.64,10.45q0,43.29,0,86.57c0,6.88-3.5,10.43-10.26,10.47q-12.24.07-24.48,0c-6.45-.05-10-3.49-10-9.92C22.4,319.65,22.45,304.92,22.44,290.19Z"/><path d="M236,153.51c-.59,1.21-.92,2.68-1.82,3.59Q212.84,178.63,191.36,200c-5,5-6.79,5-11.69.11-4.54-4.55-9.06-9.14-14.31-14.44-2.52,2.86-4.65,5.5-7,7.91q-9.08,9.26-18.34,18.34c-2.79,2.74-5.81,2.84-8,.47-2-2.15-1.78-5.23.75-7.78Q147,190.25,161.42,176c3.08-3.05,5.63-3,8.83.16,5,4.94,9.94,10,14.51,14.55l44.74-44.56c-2.68,0-5.28,0-7.87,0-3.92-.08-6.13-2-6.11-5.23s2.14-5,6.19-5.06c6.82,0,13.64-.05,20.46,0,4.28,0,6.08,1.7,6.15,5.94.11,6.93.1,13.88,0,20.81,0,3.82-2.29,6.19-5.36,6.07s-4.87-2.37-5-6.07c-.09-2.6,0-5.2,0-7.8Z"/></g></g></svg>