<svg xmlns="http://www.w3.org/2000/svg" viewBox="0 0 384 384"><defs><style>.cls-1{fill:#fff;}</style></defs><g id="Layer_2" data-name="Layer 2"><g id="Layer_1-2" data-name="Layer 1"><path class="cls-1" d="M384,384H0V0H384ZM171.09,303.49c2.59,2.09,5.2,4.2,7.82,6.3,1.47,1.17,2.79,2.76,4.47,3.36,2.36.85,5.08,1.62,7.47,1.26,5.75-.87,10.57-6.18,11.54-11.92.55-3.25.13-6-3-8.1-4-2.7-7.65-6-11.47-9.06-2.48-2-3.45-4.32-1.51-7.15,1.69-2.48,4.47-2.54,7.5-.16,5.3,4.17,10.51,8.47,15.85,12.6a10.64,10.64,0,0,0,4.28,2.06c6.66,1.29,14-3.07,17.19-10s1.71-13.42-4.11-18.1c-4.87-3.92-9.8-7.77-14.6-11.77-3-2.52-3.08-6-.29-7.94,2.36-1.69,4.43-.82,6.45.81,7.3,5.88,14.6,11.76,22,17.56,6.45,5.08,14.7,3.92,20.24-2.74,5.81-7,5.61-16.25-.56-21.51-3.13-2.68-6.42-5.18-9.64-7.76-4.49-3.59-9.15-7-13.38-10.87a6.9,6.9,0,0,1-1.73-5.47c.24-1.29,2.48-2.88,4-3.07s3.24,1.05,4.55,2.09c11.09,8.75,22.06,17.64,33.18,26.35a11.58,11.58,0,0,0,5.69,2.41c6.76.69,13.74-4.33,16.42-11.37,2.6-6.85,1-12.48-5-17.24Q268.2,193,242,172.09c-9.19-7.31-18.42-14.57-27.85-21.57a21,21,0,0,0-15.56-4.19c-4.46.59-8.9,1.33-13.37,1.8-8.8.93-17.62,2.52-26.41,2.37-10.6-.17-19.51-5-25.72-13.92-6.81-9.83-5.78-25.77,12.2-28a72.07,72.07,0,0,0,14.58-3.09c12-4.13,23.9-8.77,35.85-13.15,3.19-1.16,6.45-2.13,10.26-3.38a48.62,48.62,0,0,0-22.31-3.75c-10.72.71-21.4,2-32.11,2.76-10.33.72-20.69,1.28-31,1.48-2.39.05-3.79.36-5.26,2.28q-31.42,41.12-63,82.12c-.65.86-1.21,1.79-1.76,2.62l6,7.08c8.6-7.26,18-8,27.49-2.62S97.89,194.9,97.8,206a25.52,25.52,0,0,1,21,7.48c5.68,5.62,8.21,12.59,8.19,20.62,9.37-.51,16.82,2.68,22.64,9.47s7.54,15,5.67,23.69C171.73,271.67,180.27,289.4,171.09,303.49ZM334.44,177.21,312.93,148.6Q291.44,120,269.87,91.4c-.77-1-2.82-2.23-3.61-1.88-10.62,4.77-21.94,5.73-33.29,6.4-15.28.92-30.1,3.31-44.5,9.09-13.48,5.41-26.79,11.76-41.58,13.2a29.41,29.41,0,0,0-4,.83c-3,.72-4.79,3-4.1,5.75a22.25,22.25,0,0,0,4.21,8.85,19.79,19.79,0,0,0,15.16,7.19c7.56,0,15.13-1,22.68-1.76s14.9-2.37,22.32-2.21c10.53.23,18.51,6.77,26.36,13.06q32.17,25.79,64.41,51.5c1.1.87,3.11,1.82,4.14,1.4C311.93,197.07,324.53,189.39,334.44,177.21ZM43,170.42l66.93-87.15c-5.52-4-10.55-8.15-16-11.53-7.44-4.58-13.66-3.88-20.31,1.72a51.27,51.27,0,0,0-7.44,7.36C55.47,94.37,44.87,108,34.48,121.71A98.07,98.07,0,0,0,25,136.5c-4.34,8.59-2.62,16.61,4.54,23C33.74,163.28,38.27,166.62,43,170.42ZM275.36,82.87,341.59,171c5.34-4.71,10.63-8.89,15.33-13.64,5.24-5.3,6.27-11.89,3.17-18.67a74.57,74.57,0,0,0-7.35-13q-15.66-21.49-31.83-42.6a67.16,67.16,0,0,0-9.27-9.73c-6.44-5.59-12.68-6.31-20-2C286.11,74.74,281.05,78.84,275.36,82.87Zm-230.52,131c.72,9,7.92,16.7,16.6,17.35,3.94.29,7.26-.63,10-3.82,3.9-4.53,8.14-8.78,12.2-13.17,5.26-5.69,6.16-11,3-17.39s-10.72-10.88-17.09-9.9a11.17,11.17,0,0,0-5.74,3c-5,5-10,10.17-14.53,15.61C47.28,207.88,46.28,211,44.84,213.84Zm47.63,46.58c2.58-1.46,5.59-2.48,7.67-4.46,4.77-4.56,9.06-9.62,13.59-14.43a13,13,0,0,0,3.11-13.83A17.1,17.1,0,0,0,104,215.8c-6-1.44-10.31,1.12-14.11,5.48S81.85,229.49,78.34,234A16.2,16.2,0,0,0,75,242.39C74.46,251.59,82.64,259.57,92.47,260.42Zm10.79,10.29a19.53,19.53,0,0,0,11.76,16c6.2,2.48,11,1.17,16.33-4.48,3.84-4.09,7.78-8.11,11.44-12.37a16.54,16.54,0,0,0,3.45-6.06c2.67-9.8-6.26-20.47-17-20.1a11.94,11.94,0,0,0-7.22,3.06,183.31,183.31,0,0,0-14.57,15.57C105.5,264.63,104.63,267.87,103.26,270.71ZM149,309.57c2-.9,4.26-1.43,5.81-2.8a92.46,92.46,0,0,0,8.21-8.69,10.48,10.48,0,0,0,1.25-12.2,18.39,18.39,0,0,0-11.33-9.13,4,4,0,0,0-4.88,1.3c-3.86,4.41-8.13,8.47-11.86,13a8.58,8.58,0,0,0-1.77,5.94C135.33,303.52,142.06,308.92,149,309.57Z"/><path d="M171.09,303.49c9.18-14.09.64-31.82-15.74-36.2,1.87-8.73.24-16.79-5.67-23.69s-13.27-10-22.64-9.47c0-8-2.51-15-8.19-20.62a25.52,25.52,0,0,0-21-7.48C97.89,194.9,93.43,186.32,84,181s-18.89-4.64-27.49,2.62l-6-7.08c.55-.83,1.11-1.76,1.76-2.62q31.51-41.05,63-82.12c1.47-1.92,2.87-2.23,5.26-2.28,10.36-.2,20.72-.76,31.05-1.48,10.71-.76,21.39-2.05,32.11-2.76A48.62,48.62,0,0,1,206,89c-3.81,1.25-7.07,2.22-10.26,3.38-11.95,4.38-23.81,9-35.85,13.15a72.07,72.07,0,0,1-14.58,3.09c-18,2.19-19,18.13-12.2,28,6.21,8.95,15.12,13.75,25.72,13.92,8.79.15,17.61-1.44,26.41-2.37,4.47-.47,8.91-1.21,13.37-1.8a21,21,0,0,1,15.56,4.19c9.43,7,18.66,14.26,27.85,21.57Q268.26,193,294.39,214c5.95,4.76,7.57,10.39,5,17.24-2.68,7-9.66,12.06-16.42,11.37a11.58,11.58,0,0,1-5.69-2.41c-11.12-8.71-22.09-17.6-33.18-26.35-1.31-1-3.13-2.27-4.55-2.09s-3.75,1.78-4,3.07a6.9,6.9,0,0,0,1.73,5.47c4.23,3.88,8.89,7.28,13.38,10.87,3.22,2.58,6.51,5.08,9.64,7.76,6.17,5.26,6.37,14.55.56,21.51-5.54,6.66-13.79,7.82-20.24,2.74-7.37-5.8-14.67-11.68-22-17.56-2-1.63-4.09-2.5-6.45-.81-2.79,2-2.73,5.42.29,7.94,4.8,4,9.73,7.85,14.6,11.77,5.82,4.68,7.3,11.21,4.11,18.1S220.65,294,214,292.68a10.64,10.64,0,0,1-4.28-2.06c-5.34-4.13-10.55-8.43-15.85-12.6-3-2.38-5.81-2.32-7.5.16-1.94,2.83-1,5.17,1.51,7.15,3.82,3,7.44,6.36,11.47,9.06,3.18,2.14,3.6,4.85,3,8.1-1,5.74-5.79,11.05-11.54,11.92-2.39.36-5.11-.41-7.47-1.26-1.68-.6-3-2.19-4.47-3.36C176.29,307.69,173.68,305.58,171.09,303.49Z"/><path d="M334.44,177.21c-9.91,12.18-22.51,19.86-36.4,25.61-1,.42-3-.53-4.14-1.4q-32.26-25.68-64.41-51.5c-7.85-6.29-15.83-12.83-26.36-13.06-7.42-.16-14.87,1.5-22.32,2.21s-15.12,1.76-22.68,1.76A19.79,19.79,0,0,1,143,133.64a22.25,22.25,0,0,1-4.21-8.85c-.69-2.79,1.06-5,4.1-5.75a29.41,29.41,0,0,1,4-.83c14.79-1.44,28.1-7.79,41.58-13.2,14.4-5.78,29.22-8.17,44.5-9.09,11.35-.67,22.67-1.63,33.29-6.4.79-.35,2.84.86,3.61,1.88q21.63,28.53,43.06,57.2Z"/><path d="M43,170.42c-4.72-3.8-9.25-7.14-13.42-10.88-7.16-6.43-8.88-14.45-4.54-23a98.07,98.07,0,0,1,9.45-14.79c10.39-13.75,21-27.34,31.65-40.89a51.27,51.27,0,0,1,7.44-7.36c6.65-5.6,12.87-6.3,20.31-1.72,5.49,3.38,10.52,7.52,16,11.53Z"/><path d="M275.36,82.87c5.69-4,10.75-8.13,16.29-11.43,7.31-4.35,13.55-3.63,20,2a67.16,67.16,0,0,1,9.27,9.73q16.13,21.14,31.83,42.6a74.57,74.57,0,0,1,7.35,13c3.1,6.78,2.07,13.37-3.17,18.67-4.7,4.75-10,8.93-15.33,13.64Z"/><path d="M44.84,213.84c1.44-2.8,2.44-6,4.42-8.3,4.57-5.44,9.49-10.59,14.53-15.61a11.17,11.17,0,0,1,5.74-3c6.37-1,14,3.63,17.09,9.9s2.28,11.7-3,17.39c-4.06,4.39-8.3,8.64-12.2,13.17-2.74,3.19-6.06,4.11-10,3.82C52.76,230.54,45.56,222.84,44.84,213.84Z"/><path d="M92.47,260.42c-9.83-.85-18-8.83-17.46-18A16.2,16.2,0,0,1,78.34,234c3.51-4.51,7.81-8.4,11.58-12.72s8.16-6.92,14.11-5.48a17.1,17.1,0,0,1,12.81,11.9,13,13,0,0,1-3.11,13.83c-4.53,4.81-8.82,9.87-13.59,14.43C98.06,257.94,95.05,259,92.47,260.42Z"/><path d="M103.26,270.71c1.37-2.84,2.24-6.08,4.19-8.42A183.31,183.31,0,0,1,122,246.72a11.94,11.94,0,0,1,7.22-3.06c10.74-.37,19.67,10.3,17,20.1a16.54,16.54,0,0,1-3.45,6.06c-3.66,4.26-7.6,8.28-11.44,12.37-5.31,5.65-10.13,7-16.33,4.48A19.53,19.53,0,0,1,103.26,270.71Z"/><path d="M149,309.57c-6.94-.65-13.67-6.05-14.57-12.6A8.58,8.58,0,0,1,136.2,291c3.73-4.51,8-8.57,11.86-13a4,4,0,0,1,4.88-1.3,18.39,18.39,0,0,1,11.33,9.13,10.48,10.48,0,0,1-1.25,12.2,92.46,92.46,0,0,1-8.21,8.69C153.26,308.14,151,308.67,149,309.57Z"/></g></g></svg>