<svg xmlns="http://www.w3.org/2000/svg" viewBox="0 0 384 384"><defs><style>.cls-1{fill:#fff;}</style></defs><g id="Layer_2" data-name="Layer 2"><g id="Layer_1-2" data-name="Layer 1"><path d="M204,384H180c-2.45-.31-4.9-.65-7.35-.92-38-4.17-72-18-101.49-42.21C34.38,310.64,11.43,272.05,3,225.08,1.69,218.1,1,211,0,204V180a20.94,20.94,0,0,0,.61-2.89c2.55-32.78,12.67-63,31-90.28,30.8-45.69,73.27-74,127.67-83.91C166.16,1.67,173.1,1,180,0h24c6.53.86,13.1,1.52,19.59,2.63,35.94,6.11,67.7,21.15,95,45.33,33.56,29.76,54.56,66.74,62.48,111,1.26,7,2,14,3,21.07v24c-.22,1-.48,1.91-.64,2.88-1.54,9.85-2.45,19.84-4.69,29.52-17.11,73.81-79.12,132.11-153.62,144.68C218.07,382.26,211,383,204,384ZM361.5,192c0-93.44-76.17-169.58-169.58-169.51S22.69,98.44,22.5,191.79s76,169.61,169.39,169.71S361.48,285.44,361.5,192Z"/><path class="cls-1" d="M0,204c1,7,1.69,14.1,3,21.08,8.48,47,31.43,85.56,68.21,115.79,29.51,24.25,63.54,38,101.49,42.21,2.45.27,4.9.61,7.35.92H0Z"/><path class="cls-1" d="M204,384c7-1,14.07-1.74,21.05-2.92,74.5-12.57,136.51-70.87,153.62-144.68,2.24-9.68,3.15-19.67,4.69-29.52.16-1,.42-1.92.64-2.88V384Z"/><path class="cls-1" d="M180,0c-6.9,1-13.84,1.67-20.69,2.92-54.4,9.92-96.87,38.22-127.67,83.91-18.36,27.24-28.48,57.5-31,90.28A20.94,20.94,0,0,1,0,180V0Z"/><path class="cls-1" d="M384,180c-1-7-1.7-14.09-3-21.07-7.92-44.23-28.92-81.21-62.48-111-27.27-24.18-59-39.22-95-45.33C217.1,1.52,210.53.86,204,0H384Z"/><path class="cls-1" d="M361.5,192c0,93.43-76.22,169.58-169.61,169.49S22.32,285.13,22.5,191.79,98.61,22.58,191.92,22.5,361.51,98.57,361.5,192ZM180.75,157.87c0,10.5.16,21-.07,31.49A16.24,16.24,0,0,0,186,202Q218,233.8,249.9,265.81a24.84,24.84,0,0,0,3,2.76,11.19,11.19,0,0,0,17.63-7.29c.74-4.48-1.25-7.93-4.34-11Q235.85,220,205.6,189.5a8.58,8.58,0,0,1-2.25-5.44c-.16-19.5-.08-39-.11-58.48,0-7.26-4.71-12.34-11.27-12.32s-11.19,5.09-11.21,12.37C180.73,136.38,180.75,147.12,180.75,157.87Zm22.5-89.64c0-3.61.05-7.23,0-10.84-.13-6.66-4.89-11.58-11.15-11.63s-11.21,4.88-11.3,11.47q-.15,11,0,22.06a11.22,11.22,0,1,0,22.44.16C203.33,75.71,203.24,72,203.25,68.23ZM68,203.24c3.86,0,7.73.1,11.59,0a11.22,11.22,0,0,0,0-22.43c-7.48-.14-15-.12-22.43,0a11.25,11.25,0,0,0-11.35,11.05c-.09,6.26,4.83,11.23,11.38,11.4C60.76,203.32,64.37,203.24,68,203.24Zm248.15-22.49c-3.86,0-7.73-.08-11.59,0a11.22,11.22,0,0,0-.22,22.43q11.4.24,22.8,0a11.22,11.22,0,0,0-.15-22.44C323.37,180.67,319.75,180.75,316.14,180.75ZM180.75,315.81c0,3.61-.05,7.23,0,10.84.13,6.64,4.93,11.57,11.2,11.59s11.16-4.9,11.25-11.52q.15-11,0-22.06a11.23,11.23,0,1,0-22.45-.07C180.68,308.33,180.76,312.07,180.75,315.81ZM298.6,287.44a11.16,11.16,0,0,0-11.16-11.24,11.43,11.43,0,0,0-11.24,11.26,11.17,11.17,0,0,0,11.27,11.14A11,11,0,0,0,298.6,287.44ZM85.39,96.46A11.16,11.16,0,0,0,96.46,107.8a11.43,11.43,0,0,0,11.33-11.18A11.14,11.14,0,0,0,96.62,85.39,11,11,0,0,0,85.39,96.46ZM287.31,85.38a11.31,11.31,0,0,0-11.13,11.31,11.57,11.57,0,0,0,11.42,11.14,11.3,11.3,0,0,0,11-11.43A11.06,11.06,0,0,0,287.31,85.38ZM85.38,287.62a11.09,11.09,0,0,0,11.34,11,11.27,11.27,0,0,0,11.1-11.34,11.55,11.55,0,0,0-11.45-11.11A11.28,11.28,0,0,0,85.38,287.62Z"/><path d="M180.75,157.87c0-10.75,0-21.49,0-32.24,0-7.28,4.66-12.35,11.21-12.37s11.26,5.06,11.27,12.32c0,19.49-.05,39,.11,58.48a8.58,8.58,0,0,0,2.25,5.44Q235.8,220,266.24,250.26c3.09,3.09,5.08,6.54,4.34,11A11.19,11.19,0,0,1,253,268.57a24.84,24.84,0,0,1-3-2.76Q218,233.89,186,202a16.24,16.24,0,0,1-5.29-12.62C180.91,178.87,180.75,168.37,180.75,157.87Z"/><path d="M203.24,68.23c0,3.74.09,7.48,0,11.22a11.22,11.22,0,1,1-22.44-.16q-.15-11,0-22.06c.09-6.59,5-11.52,11.3-11.47s11,5,11.15,11.63C203.3,61,203.25,64.62,203.24,68.23Z"/><path d="M68,203.24c-3.62,0-7.23.08-10.85,0-6.55-.17-11.47-5.14-11.38-11.4a11.25,11.25,0,0,1,11.35-11.05c7.47-.11,15-.13,22.43,0a11.22,11.22,0,0,1,0,22.43C75.72,203.34,71.85,203.24,68,203.24Z"/><path d="M316.14,180.75c3.61,0,7.23-.08,10.84,0a11.22,11.22,0,0,1,.15,22.44q-11.4.22-22.8,0a11.22,11.22,0,0,1,.22-22.43C308.41,180.67,312.28,180.75,316.14,180.75Z"/><path d="M180.75,315.81c0-3.74-.07-7.48,0-11.22a11.23,11.23,0,1,1,22.45.07q.17,11,0,22.06c-.09,6.62-5,11.53-11.25,11.52s-11.07-4.95-11.2-11.59C180.7,323,180.75,319.42,180.75,315.81Z"/><path d="M298.6,287.44a11,11,0,0,1-11.13,11.16,11.17,11.17,0,0,1-11.27-11.14,11.43,11.43,0,0,1,11.24-11.26A11.16,11.16,0,0,1,298.6,287.44Z"/><path d="M85.39,96.46A11,11,0,0,1,96.62,85.39a11.14,11.14,0,0,1,11.17,11.23A11.43,11.43,0,0,1,96.46,107.8,11.16,11.16,0,0,1,85.39,96.46Z"/><path d="M287.31,85.38a11.06,11.06,0,0,1,11.31,11,11.3,11.3,0,0,1-11,11.43,11.57,11.57,0,0,1-11.42-11.14A11.31,11.31,0,0,1,287.31,85.38Z"/><path d="M85.38,287.62a11.28,11.28,0,0,1,11-11.45,11.55,11.55,0,0,1,11.45,11.11,11.27,11.27,0,0,1-11.1,11.34A11.09,11.09,0,0,1,85.38,287.62Z"/></g></g></svg>