<svg xmlns="http://www.w3.org/2000/svg" viewBox="0 0 384 384"><defs><style>.cls-1{fill:#fff;}</style></defs><g id="Layer_2" data-name="Layer 2"><g id="Layer_1-2" data-name="Layer 1"><path class="cls-1" d="M0,384V0H384V384Zm210.84-38.49v-4.85c0-32-.09-64,.07-96a154.73,154.73,0,0,1,1.5-21.29c2.77-19.25,12.56-29.67,30.36-31.77,19.55-2.31,33.2,4.82,37.06,25.79a130.07,130.07,0,0,1,2,22.73c.22,33.5.12,67,.13,100.51v4.25H345.6c.06-.84.15-1.45.15-2.05,0-39.5.07-79-.2-118.52-.1-14.25-1.53-28.44-5.67-42.21-5.19-17.25-14.59-31.13-31.38-39-13-6.11-26.79-7.83-40.92-7.4-24.73.74-44.74,10.28-58.11,31.84-.15.24-.55.33-1.4.81V140.72H147.41V345.51ZM43.63,140.67v204.7H107V140.67Zm68.46-65.6a36.87,36.87,0,0,0-73.74.14c0,20.44,16.89,37.35,37.17,37.23S112.2,95.44,112.09,75.07Z"/><path d="M210.84,345.51H147.41V140.72h60.66V168.3c.85-.48,1.25-.57,1.4-.81,13.37-21.56,33.38-31.1,58.11-31.84,14.13-.43,27.95,1.29,40.92,7.4,16.79,7.91,26.19,21.79,31.38,39,4.14,13.77,5.57,28,5.67,42.21.27,39.51.16,79,.2,118.52,0,.6-.09,1.21-.15,2.05H282v-4.25c0-33.5.09-67-.13-100.51a130.07,130.07,0,0,0-2-22.73c-3.86-21-17.51-28.1-37.06-25.79-17.8,2.1-27.59,12.52-30.36,31.77a154.73,154.73,0,0,0-1.5,21.29c-.16,32-.07,64-.07,96Z"/><path d="M43.63,140.67H107v204.7H43.63Z"/><path d="M112.09,75.07c.11,20.37-16.41,37.26-36.57,37.37S38.36,95.65,38.35,75.21a36.87,36.87,0,0,1,73.74-.14Z"/></g></g></svg>