<svg xmlns="http://www.w3.org/2000/svg" viewBox="0 0 393.64 393.64"><defs><style>.cls-1{fill:#fff;}</style></defs><g id="Layer_2" data-name="Layer 2"><g id="Layer_1-2" data-name="Layer 1"><path class="cls-1" d="M0,182.62V0H393.64V393.64H0V208.71c6.29,15.51,10.67,18.43,27.68,18.43H284.92c-1.53,1.62-2.44,2.63-3.4,3.59Q242.13,270,202.73,309.29c-10.19,10.18-10.13,22.55,0,32.79q5,5,10.05,10c10.49,10.38,22.95,10.37,33.43-.1q69.47-69.42,138.88-138.91a30.08,30.08,0,0,0,4.6-5.61c5.52-9.14,3.77-19.38-4.66-27.81q-69.42-69.46-138.89-138.9c-.91-.9-1.84-1.78-2.82-2.6-7.09-5.94-17.27-7.55-24.52-1.94a109.91,109.91,0,0,0-20.46,20.48c-6.25,8.33-3.79,19.17,4.41,27.4q39,39.14,78,78.22c.93.92,1.8,1.9,3.22,3.4H24.94a50.07,50.07,0,0,0-5.75.15c-8.16.92-14,5.17-17.46,12.6C1.09,179.83.57,181.24,0,182.62Z"/><path d="M0,182.62c.57-1.38,1.09-2.79,1.73-4.14,3.48-7.43,9.3-11.68,17.46-12.6a50.07,50.07,0,0,1,5.75-.15H284c-1.42-1.5-2.29-2.48-3.22-3.4q-39-39.11-78-78.22c-8.2-8.23-10.66-19.07-4.41-27.4a109.91,109.91,0,0,1,20.46-20.48c7.25-5.61,17.43-4,24.52,1.94,1,.82,1.91,1.7,2.82,2.6q69.45,69.44,138.89,138.9c8.43,8.43,10.18,18.67,4.66,27.81a30.08,30.08,0,0,1-4.6,5.61Q315.72,282.59,246.24,352c-10.48,10.47-22.94,10.48-33.43.1q-5-5-10.05-10c-10.16-10.24-10.22-22.61,0-32.79q39.36-39.32,78.79-78.56c1-1,1.87-2,3.4-3.59H27.68c-17,0-21.39-2.92-27.68-18.43Z"/></g></g></svg>