<svg xmlns="http://www.w3.org/2000/svg" viewBox="0 0 409.6 409.6"><defs><style>.cls-1{fill:#fff;}</style></defs><g id="Layer_2" data-name="Layer 2"><g id="Layer_1-2" data-name="Layer 1"><path class="cls-1" d="M0,409.6V0H409.6V409.6Zm1.84-75.76a16.54,16.54,0,0,0,1.65,1.42A231.68,231.68,0,0,0,62.6,361.74c33.19,9.55,66.92,11.7,101.15,7.22,36.21-4.74,70.09-16.28,99.75-37.61,70.3-50.56,104.32-119.93,104.42-206.27a8.07,8.07,0,0,1,2.53-5.2c6.07-5.58,12.81-10.47,18.5-16.38,7.2-7.47,13.61-15.69,20.36-23.59l-.88-1c-14.37,5.95-29.14,10.35-44.8,11.87,16.15-11.29,28.06-25.63,34.43-45.19-1.8.9-2.87,1.38-3.89,2A158.86,158.86,0,0,1,348,64.72a6.64,6.64,0,0,1-5.11-1.39q-35.25-32.82-81.86-21c-30.33,7.73-55.7,36.55-59.87,67.53a100.83,100.83,0,0,0,.87,32.31C131.84,137.42,74.61,108,29.36,54.74c-8.95,14.42-13.23,32.62-10.85,52,3,24.54,15.12,44.11,35,59.3a99.62,99.62,0,0,1-18.38-2.8c-6-1.67-11.76-4.31-17.68-6.55-1.22,31.35,20.12,71.18,65.74,82.59-12.28,3.42-24.12,3.11-36.09,1.67,1.54,8,8.54,20.56,16.35,29.31,16,17.93,36.14,27.4,61.18,28.86C87.67,326.91,47.2,337.89,1.84,333.84Z"/><path d="M1.84,333.84c45.36,4.05,85.83-6.93,122.77-34.71-25-1.46-45.18-10.93-61.18-28.86C55.62,261.52,48.62,249,47.08,241c12,1.44,23.81,1.75,36.09-1.67-45.62-11.41-67-51.24-65.74-82.59,5.92,2.24,11.67,4.88,17.68,6.55a99.62,99.62,0,0,0,18.38,2.8c-19.86-15.19-32-34.76-35-59.3-2.38-19.39,1.9-37.59,10.85-52C74.61,108,131.84,137.42,202.07,142.12a100.83,100.83,0,0,1-.87-32.31c4.17-31,29.54-59.8,59.87-67.53q46.64-11.87,81.86,21A6.64,6.64,0,0,0,348,64.72a158.86,158.86,0,0,0,46.13-17.19c1-.57,2.09-1.05,3.89-2-6.37,19.56-18.28,33.9-34.43,45.19,15.66-1.52,30.43-5.92,44.8-11.87l.88,1C402.56,87.81,396.15,96,389,103.5c-5.69,5.91-12.43,10.8-18.5,16.38a8.07,8.07,0,0,0-2.53,5.2c-.1,86.34-34.12,155.71-104.42,206.27C233.84,352.68,200,364.22,163.75,369c-34.23,4.48-68,2.33-101.15-7.22A231.68,231.68,0,0,1,3.49,335.26,16.54,16.54,0,0,1,1.84,333.84Z"/></g></g></svg>