<svg xmlns="http://www.w3.org/2000/svg" viewBox="0 0 384 384"><defs><style>.cls-1{fill:#fba74c;}.cls-2{fill:#f8973e;}.cls-3{fill:#fefefe;}.cls-4{fill:#fefdfd;}.cls-5{fill:#fefefd;}</style></defs><g id="Layer_2" data-name="Layer 2"><g id="Layer_1-2" data-name="Layer 1"><path class="cls-1" d="M162,.07h60.73c.36.65,1,.69,1.61.7,12.21.23,24.37,1.32,36.53,2.35,6.54.55,13.14.81,19.59,2.25.75,2,1.43,4,2.26,5.94C293.23,35.8,298.23,61.5,299.16,88c.38,10.73-.73,21.39-2.1,32a201.54,201.54,0,0,1-19,63.16,209.16,209.16,0,0,1-46.46,62.37c-5.46,5-11,10.1-17.51,13.91-.25-3.1-.3-6.23-.8-9.3-1.07-6.64-5.07-10.18-11.75-11a75.57,75.57,0,0,0-19.36,0c-6.43.83-10.44,4.4-11.53,10.85-1,5.8-.76,11.65-.49,17.51s2.22,10.67,7.56,13.66a109.65,109.65,0,0,1-19.31,8,217.19,217.19,0,0,1-56.35,10.93,214.78,214.78,0,0,1-39.46-1.62c-6.54-.82-13-1.93-19.55-2.91-16.63-12.18-28.44-27.95-33.9-47.85C4.77,231.69,3,215.06,1.5,198.43c-.39-4.39,0-8.89-1.42-13.18V136.52a1.71,1.71,0,0,0,.72-1.61c.64-15.7,3-31.2,5.21-46.73C10.44,57.84,26.64,35.6,52.12,19.51c12-7.6,25.32-11.18,39.36-12.94C109,4.36,126.63,2.79,144.26,1.48,150.18,1,156.19,1.58,162,.07Zm38.61,62a81.52,81.52,0,0,0-18.26,1.72c-26.2,5.59-44.56,20.33-53.55,46a21.22,21.22,0,0,0-.92,11.43,22.27,22.27,0,0,0,20.67,18.11c9.34.72,18.27-5.17,21.85-14.49,1.38-3.62,2.74-7.24,5.06-10.4,7.31-10,22.86-14.1,36-9.55,9.26,3.2,13.5,10.1,12,19.75-.84,5.39-4.25,9.18-8.18,12.6-6.08,5.28-13.14,9.09-19.9,13.34-18.07,11.34-26,27.54-24.24,48.78,1.11,13.56,12.92,22.68,25.86,19.53,9.53-2.32,15.93-10.58,15.63-21.5-.21-7.68,2.63-13.26,8.76-17.49,2.16-1.48,4.26-3,6.46-4.47,7.78-5,15.52-10,22.44-16.22,24.76-22.21,21.31-57.56,1.89-76.94C237.93,68.06,220.35,62.3,200.62,62.1Z"/><path class="cls-2" d="M214.13,259.49c6.49-3.81,12.05-8.87,17.51-13.91a209.16,209.16,0,0,0,46.46-62.37,201.54,201.54,0,0,0,19-63.16c1.37-10.64,2.48-21.3,2.1-32-.93-26.52-5.93-52.22-16.43-76.71-.83-2-1.51-4-2.26-5.94l7.44.71c18.45,1.74,35.76,6.69,50.8,18.06,18.7,14.14,32.44,31.69,37.35,55.13a366.79,366.79,0,0,1,6.54,47c.33,4.15-.11,8.42,1.33,12.46v45c-.92.59-.65,1.55-.7,2.38-.93,17.09-3.45,34-5.93,50.92-6,40.63-43.82,72-76.14,76.7-16.19,2.35-32.44,4-48.73,5.43a5.87,5.87,0,0,0-5,3.15q-14.33,22.41-30,43.88c-5.59,7.63-11.57,14.62-20.93,17.72h-8.25c-8.76-2.44-14.63-8.44-19.89-15.5-11.13-14.92-21.59-30.28-31.61-45.94a6.51,6.51,0,0,0-5.61-3.42c-15.18-1.11-30.31-2.7-45.38-4.88a86,86,0,0,1-42.67-18.55c6.51,1,13,2.09,19.55,2.91a214.78,214.78,0,0,0,39.46,1.62,217.19,217.19,0,0,0,56.35-10.93,109.65,109.65,0,0,0,19.31-8,64.8,64.8,0,0,0,25.65.61c5.09-.86,8.42-4.15,9.66-9.28C214.12,268.25,213.84,263.84,214.13,259.49Z"/><path class="cls-3" d="M196.5,383.93c9.36-3.1,15.34-10.09,20.93-17.72q15.7-21.48,30-43.88a5.87,5.87,0,0,1,5-3.15c16.29-1.39,32.54-3.08,48.73-5.43,32.32-4.7,70.17-36.07,76.14-76.7,2.48-16.93,5-33.83,5.93-50.92,0-.83-.22-1.79.7-2.38q0,98.49.07,197c0,2.68-.53,3.26-3.25,3.26Q288.62,383.85,196.5,383.93Z"/><path class="cls-3" d="M43.09,295.64a86,86,0,0,0,42.67,18.55c15.07,2.18,30.2,3.77,45.38,4.88a6.51,6.51,0,0,1,5.61,3.42c10,15.66,20.48,31,31.61,45.94,5.26,7.06,11.13,13.06,19.89,15.5q-92.49,0-185,.07C.54,384,0,383.42,0,380.74Q.15,283,.08,185.25c1.45,4.29,1,8.79,1.42,13.18C3,215.06,4.77,231.69,9.19,247.79,14.65,267.69,26.46,283.46,43.09,295.64Z"/><path class="cls-4" d="M383.93,138.77c-1.44-4-1-8.31-1.33-12.46a366.79,366.79,0,0,0-6.54-47c-4.91-23.44-18.65-41-37.35-55.13-15-11.37-32.35-16.32-50.8-18.06l-7.44-.71c-6.45-1.44-13.05-1.7-19.59-2.25C248.72,2.09,236.56,1,224.35.77c-.62,0-1.25-.05-1.61-.7q79.1,0,158.19-.07C383.5,0,384,.5,384,3.07Q383.85,70.91,383.93,138.77Z"/><path class="cls-5" d="M162,.07c-5.82,1.51-11.83,1-17.75,1.41C126.63,2.79,109,4.36,91.48,6.57c-14,1.76-27.32,5.34-39.36,12.94C26.64,35.6,10.44,57.84,6,88.18c-2.26,15.53-4.57,31-5.21,46.73a1.71,1.71,0,0,1-.72,1.61Q.08,69.88,0,3.24C0,.49.62,0,3.28,0Q82.65.15,162,.07Z"/><path class="cls-5" d="M200.62,62.1c19.73.2,37.31,6,51.58,20.18,19.42,19.38,22.87,54.73-1.89,76.94-6.92,6.21-14.66,11.23-22.44,16.22-2.2,1.42-4.3,3-6.46,4.47-6.13,4.23-9,9.81-8.76,17.49.3,10.92-6.1,19.18-15.63,21.5-12.94,3.15-24.75-6-25.86-19.53-1.74-21.24,6.17-37.44,24.24-48.78,6.76-4.25,13.82-8.06,19.9-13.34,3.93-3.42,7.34-7.21,8.18-12.6,1.5-9.65-2.74-16.55-12-19.75-13.15-4.55-28.7-.42-36,9.55-2.32,3.16-3.68,6.78-5.06,10.4-3.58,9.32-12.51,15.21-21.85,14.49a22.27,22.27,0,0,1-20.67-18.11,21.22,21.22,0,0,1,.92-11.43c9-25.65,27.35-40.39,53.55-46A81.52,81.52,0,0,1,200.62,62.1Z"/><path class="cls-4" d="M214.13,259.49c-.29,4.35,0,8.76-1.06,13-1.24,5.13-4.57,8.42-9.66,9.28a64.8,64.8,0,0,1-25.65-.61c-5.34-3-7.29-7.77-7.56-13.66s-.48-11.71.49-17.51c1.09-6.45,5.1-10,11.53-10.85a75.57,75.57,0,0,1,19.36,0c6.68.85,10.68,4.39,11.75,11C213.83,253.26,213.88,256.39,214.13,259.49Z"/></g></g></svg>