<svg xmlns="http://www.w3.org/2000/svg" viewBox="0 0 372.9 372.9"><defs><style>.cls-1{fill:#fefefe;}.cls-2{fill:#1dc7ea;}.cls-3{fill:#feb320;}.cls-4{fill:#c9defe;}.cls-5{fill:#a0a0a0;}.cls-6{fill:#fea900;}</style></defs><g id="Layer_2" data-name="Layer 2"><g id="Layer_1-2" data-name="Layer 1"><path class="cls-1" d="M372.83,111.24q0,129.16.07,258.32c0,2.73-.61,3.34-3.34,3.34q-183.1-.12-366.22,0c-2.73,0-3.34-.61-3.34-3.34Q.12,186.46,0,3.34C0,.61.61,0,3.34,0Q186.45.12,369.56,0c2.73,0,3.35.61,3.34,3.34q-.15,51.77-.07,103.54l-24-3.53a14.32,14.32,0,0,1-5.46-1.81c-8.06-4.94-8.35-15.41-.46-21.61,5.71-4.49,11.56-8.79,17.43-13.06,1.55-1.13,1.64-1.92.49-3.43q-10.11-13.29-20-26.73c-1.24-1.68-2.1-1.68-3.7-.45-5.83,4.52-11.72,9-17.71,13.29-4.63,3.34-9.69,3.84-14.6.7s-6.63-8-5.75-13.83c1.08-7,2-14.12,3.14-21.16.31-2-.44-2.54-2.22-2.78C289.05,11,278.14,9.6,267.28,7.86c-2.71-.43-3.09.65-3.33,2.7-.51,4.2-1.08,8.4-1.66,12.59-.39,2.75-.89,5.48-1.27,8.24-.79,5.69-3.77,9.78-9.32,11.31s-10.48-.41-14.06-5.13c-4.17-5.49-8.43-10.92-12.37-16.58-1.79-2.57-3-2.46-5.32-.66-6.1,4.75-12.41,9.24-18.63,13.83a20,20,0,0,0-2.82-.6c-11.75-.78-23.45-.5-35,2.15-32.58,7.48-57.64,25.44-74.85,54.12-10.76,17.94-15.66,37.59-16,58.43a31.24,31.24,0,0,1-4,0c-3.07-.37-4.49.58-5,3.95-.71,5.23-2.09,10.37-3.3,15.52-1.49,6.31-5.89,8-11.35,4.31-4.71-3.16-9.42-6.32-14-9.65-1.64-1.18-2.7-1-4,.34q-7.77,7.91-15.67,15.66C14,179.64,14,180.53,15,182c3.43,4.81,6.74,9.72,10,14.66,3.49,5.32,1.43,10-4.78,11.19-5.67,1.12-11.28,2.53-17,3.49-2.1.36-2.51,1.21-2.49,3.06.07,6.78.08,13.56,0,20.34,0,1.89.5,2.78,2.49,3.15,5.56,1,11.06,2.31,16.61,3.41,7.14,1.41,9,6.31,4.73,12.16-3.21,4.38-6.1,9-9.37,13.33-1.63,2.16-1.19,3.45.61,5.17,5,4.77,9.9,9.62,14.62,14.65,1.78,1.9,3,1.58,4.83.28,4.48-3.27,9-6.45,13.59-9.62,5.52-3.84,10-2.14,11.55,4.4,1.28,5.51,2.56,11,3.52,16.6.45,2.61,1.58,3.38,4.09,3.33,6.29-.13,12.59-.17,18.88,0,2.47.07,3.47-.93,3.92-3.13,1.15-5.53,2.69-11,3.5-16.59,1-7.13,6.88-7.93,11.43-4.81,4.28,2.94,8.64,5.77,12.73,9,2.54,2,4.14,1.81,6.4-.5,5.58-5.69,11-11.6,17.07-16.78a28.71,28.71,0,0,1,1.08,8.93c.06,8.11-.13,16.23.12,24.33.31,10,8.08,18.17,18,18.33q26.51.45,53,0c9.27-.15,16.67-7.39,17.8-16.57,1-8.07.55-16.21.37-24.3-.34-15.34,5.72-27.07,18.49-35.55,22.72-15.07,38.09-35.75,46.53-61.63a16.52,16.52,0,0,1,4.22,4.44c3.92,5.23,7.88,10.43,11.73,15.7,1.13,1.54,1.93,2,3.69.66q13.11-10.07,26.43-19.83c1.83-1.35,1.9-2.21.52-4-4.47-5.72-8.81-11.55-13.09-17.41-3.37-4.63-3.8-9.63-.93-14.62,2.69-4.68,8-6.79,13.77-5.92,7,1.06,14.12,2,21.17,3.1,1.68.26,2.67.13,2.9-2,.57-5.17,1.26-10.33,2.19-15.44C370.93,121.8,370.71,116.31,372.83,111.24ZM187.94,332.93h-23.2c-9.17,0-9,0-9.21,9.28-.08,3.4,1.14,3.92,4.15,3.9,16.79-.13,33.59-.07,50.38-.07,9.6,0,9.46,0,9.57-9.62,0-3.07-1.1-3.57-3.78-3.54C206.55,333,197.24,332.93,187.94,332.93ZM20.44,37a5.94,5.94,0,0,0-6,4.35c-1.07,3.27.38,5.67,2.92,7.5q16.46,11.84,33,23.58c1.69,1.19,3.56,2,5.77,1.42a6.24,6.24,0,0,0,4.76-4.94c.63-3.11-1-5.32-3.39-7Q41.34,50.23,25.12,38.67A7.22,7.22,0,0,0,20.44,37Zm69.73,8.69a5,5,0,0,0-.09-1.19c-3.28-12.86-6.5-25.75-10-38.57C79.07,1.94,75.74.23,72.36,1.22,68.82,2.26,67,5.54,68,9.56c1.39,5.75,2.93,11.46,4.4,17.19,1.78,6.9,3.44,13.83,5.37,20.68,1,3.57,4,5.36,7.08,4.84A6.47,6.47,0,0,0,90.17,45.64ZM9.26,120.73a6.51,6.51,0,0,0,1.21-.09C23.25,117.46,36,114.3,48.8,111a6.32,6.32,0,0,0,4.31-3.61,6,6,0,0,0-.82-6.48c-1.87-2.42-4.5-2.7-7.24-2-4.94,1.15-9.86,2.41-14.78,3.64-7.61,1.91-15.25,3.74-22.83,5.8-3.62,1-5.49,3.86-5.05,7S5.57,120.77,9.26,120.73ZM342.31,303.56a6.86,6.86,0,0,0-2.75-5.28Q325.8,286.76,312,275.33a6.35,6.35,0,0,0-5.69-1.65,6.14,6.14,0,0,0-4.9,4.76c-.75,3,.64,5.17,2.78,7q11.67,9.78,23.39,19.47a41.63,41.63,0,0,0,5.13,4A6.23,6.23,0,0,0,342.31,303.56ZM283.45,311c0-5.08.07-10.17,0-15.25-.08-4.22-2.64-7-6.2-7.13s-6.47,2.61-6.54,6.79q-.27,15.42,0,30.86c.07,4.32,2.76,6.91,6.4,6.9,3.81,0,6.3-2.77,6.37-7.28C283.51,320.88,283.45,315.92,283.45,311Zm47.95-60.82c5.08,0,10.16.07,15.24,0,4.27-.08,6.9-2.58,6.9-6.3s-2.61-6.24-6.9-6.28q-15.22-.14-30.47,0c-4.44,0-7.29,2.74-7.16,6.47s2.91,6.06,7.16,6.12C321.24,250.2,326.32,250.14,331.4,250.14Z"/><path class="cls-2" d="M372.83,111.24c-2.12,5.07-1.9,10.56-2.85,15.84-.93,5.11-1.62,10.27-2.19,15.44-.23,2.11-1.22,2.24-2.9,2-7.05-1.07-14.12-2-21.17-3.1-5.78-.87-11.08,1.24-13.77,5.92-2.87,5-2.44,10,.93,14.62,4.28,5.86,8.62,11.69,13.09,17.41,1.38,1.76,1.31,2.62-.52,4q-13.32,9.77-26.43,19.83c-1.76,1.36-2.56.88-3.69-.66-3.85-5.27-7.81-10.47-11.73-15.7a16.52,16.52,0,0,0-4.22-4.44c-8.52-6.18-18.85-1.62-20.46,9.08-1,6.93-2,13.88-3,20.83-.22,1.53-.08,3.16-2.62,2.77q-16.86-2.58-33.76-4.89c-1.94-.27-2-1.07-1.72-2.64,1-6.69,1.89-13.42,3-20.1,1-6.12-.17-11.36-5.61-15-4.67-3.09-10.35-2.48-15.84,1.6s-11.09,8.21-16.53,12.45c-1.64,1.27-2.48,1.12-3.69-.53q-9.92-13.44-20-26.72c-1.18-1.55-1-2.28.53-3.36,5.67-4.13,11.21-8.46,16.88-12.59,5-3.64,7.25-8.41,5.91-14.49-1.18-5.35-5.77-8.72-12.31-9.62-6.83-.93-13.64-2-20.48-2.86-2.12-.26-2.46-1-2.14-3,1.65-10.88,3.15-21.79,4.61-32.7.26-1.92.69-2.68,2.92-2.31,6.8,1.16,13.64,2,20.47,3,6,.86,11.21-.41,14.5-5.86s2.15-10.63-1.55-15.5c-4.17-5.5-8.2-11.1-12.45-16.53-1.33-1.7-1.51-2.64.45-3.93,2.41-1.58,4.59-3.52,6.87-5.3,6.22-4.59,12.53-9.08,18.63-13.83,2.3-1.8,3.53-1.91,5.32.66,3.94,5.66,8.2,11.09,12.37,16.58,3.58,4.72,8.37,6.69,14.06,5.13s8.53-5.62,9.32-11.31c.38-2.76.88-5.49,1.27-8.24.58-4.19,1.15-8.39,1.66-12.59.24-2.05.62-3.13,3.33-2.7,10.86,1.74,21.77,3.16,32.66,4.62,1.78.24,2.53.81,2.22,2.78-1.13,7-2.06,14.11-3.14,21.16-.88,5.81.75,10.64,5.75,13.83s10,2.64,14.6-.7c6-4.31,11.88-8.77,17.71-13.29,1.6-1.23,2.46-1.23,3.7.45q9.9,13.45,20,26.73c1.15,1.51,1.06,2.3-.49,3.43-5.87,4.27-11.72,8.57-17.43,13.06-7.89,6.2-7.6,16.67.46,21.61a14.32,14.32,0,0,0,5.46,1.81l24,3.53ZM269.36,66.94a41.82,41.82,0,0,0-6.14.13c-18.66,3.08-31.59,13.5-36.92,31.6-5.4,18.38-.37,34.54,14.26,47.08,18.24,15.63,47.85,13,61.86-5,11.35-11.85,14.47-31.58,7.47-47.25C302.57,77.06,286.2,66.34,269.36,66.94Z"/><path class="cls-3" d="M201.32,34.16c-2.28,1.78-4.46,3.72-6.87,5.3-2,1.29-1.78,2.23-.45,3.93,4.25,5.43,8.28,11,12.45,16.53,3.7,4.87,4.82,10.08,1.55,15.5s-8.53,6.72-14.5,5.86c-6.83-1-13.67-1.83-20.47-3-2.23-.37-2.66.39-2.92,2.31-1.46,10.91-3,21.82-4.61,32.7-.32,2,0,2.77,2.14,3,6.84.85,13.65,1.93,20.48,2.86,6.54.9,11.13,4.27,12.31,9.62,1.34,6.08-.9,10.85-5.91,14.49-5.67,4.13-11.21,8.46-16.88,12.59-1.48,1.08-1.71,1.81-.53,3.36q10.13,13.27,20,26.72c1.21,1.65,2,1.8,3.69.53,5.44-4.24,11-8.34,16.53-12.45s11.17-4.69,15.84-1.6c5.44,3.59,6.6,8.83,5.61,15-1.09,6.68-1.93,13.41-3,20.1-.24,1.57-.22,2.37,1.72,2.64q16.91,2.3,33.76,4.89c2.54.39,2.4-1.24,2.62-2.77,1-6.95,1.94-13.9,3-20.83,1.61-10.7,11.94-15.26,20.46-9.08-8.44,25.88-23.81,46.56-46.53,61.63-12.77,8.48-18.83,20.21-18.49,35.55.18,8.09.63,16.23-.37,24.3-1.13,9.18-8.53,16.42-17.8,16.57q-26.5.44-53,0c-9.92-.16-17.69-8.31-18-18.33-.25-8.1-.06-16.22-.12-24.33a28.71,28.71,0,0,0-1.08-8.93,29.91,29.91,0,0,0-10.23-19c-6.81-5.86-14.22-11.05-21.37-16.53A142.14,142.14,0,0,1,91.5,211c-3.86-5.85-6.75-12.2-10-18.35-5.35-14.32-8.71-29-8.84-44.38.36-20.84,5.26-40.49,16-58.43,17.21-28.68,42.27-46.64,74.85-54.12,11.54-2.65,23.24-2.93,35-2.15A20,20,0,0,1,201.32,34.16ZM187.7,269.64c1.33,0,2.67-.05,4,0,1.67.08,2.61-.56,2.36-2.3-.71-5-1.1-10.06-2.77-14.84-5.89-16.84-17.76-27.81-34.06-34.28-13-5.15-23.24-13.86-31.32-24.89-12.37-16.89-17.1-36-13.91-56.8,3-19.65,12.39-35.81,27.82-48.36,6.95-5.65,6.92-5.46,1.86-13.17-1.51-2.3-2.56-2.11-4.48-.76A92.2,92.2,0,0,0,114.9,96.16a88.36,88.36,0,0,0-16.62,49.25,87.29,87.29,0,0,0,11,45.49c9.92,18.15,24.53,31.12,43.38,39.4C157,232.19,161.3,234,165,237c9.14,7.22,14.88,16.48,15.81,28.17.29,3.59,1,5.17,4.68,4.53A13.08,13.08,0,0,1,187.7,269.64Zm6.37,22.29c0-2.54,0-5.07,0-7.61,0-1.71-.72-2.21-2.37-2.35-10.72-.86-10.71-.9-10.71,9.59v.36c.22,11.4-1.88,9.42,9.74,9.75,2.84.08,3.59-1,3.37-3.58C193.94,296.05,194.08,294,194.07,291.93Z"/><path class="cls-4" d="M72.64,148.26c.13,15.35,3.49,30.06,8.84,44.37-9.56-.07-18.27,2.53-25,9.48a31.8,31.8,0,0,0,5.41,49.21c15.3,9.94,36.72,4.46,45.15-11.68,1.1-2.11,1.39-4.65,3.31-6.33,7.15,5.48,14.56,10.67,21.37,16.53a29.91,29.91,0,0,1,10.23,19c-6.1,5.18-11.49,11.09-17.07,16.78-2.26,2.31-3.86,2.49-6.4.5-4.09-3.19-8.45-6-12.73-9-4.55-3.12-10.4-2.32-11.43,4.81-.81,5.58-2.35,11.06-3.5,16.59-.45,2.2-1.45,3.2-3.92,3.13-6.29-.19-12.59-.15-18.88,0-2.51.05-3.64-.72-4.09-3.33-1-5.57-2.24-11.09-3.52-16.6-1.52-6.54-6-8.24-11.55-4.4-4.56,3.17-9.11,6.35-13.59,9.62-1.79,1.3-3.05,1.62-4.83-.28-4.72-5-9.64-9.88-14.62-14.65-1.8-1.72-2.24-3-.61-5.17,3.27-4.34,6.16-8.95,9.37-13.33,4.29-5.85,2.41-10.75-4.73-12.16-5.55-1.1-11-2.4-16.61-3.41-2-.37-2.52-1.26-2.49-3.15.09-6.78.08-13.56,0-20.34,0-1.85.39-2.7,2.49-3.06,5.69-1,11.3-2.37,17-3.49C26.44,206.67,28.5,202,25,196.7c-3.25-4.94-6.56-9.85-10-14.66-1.07-1.51-1-2.4.3-3.66q7.92-7.74,15.67-15.66c1.34-1.36,2.4-1.52,4-.34,4.6,3.33,9.31,6.49,14,9.65,5.46,3.66,9.86,2,11.35-4.31,1.21-5.15,2.59-10.29,3.3-15.52.46-3.37,1.88-4.32,5-3.95A31.24,31.24,0,0,0,72.64,148.26Z"/><path class="cls-5" d="M187.94,332.93c9.3,0,18.61.08,27.91-.05,2.68,0,3.82.47,3.78,3.54-.11,9.62,0,9.62-9.57,9.62-16.79,0-33.59-.06-50.38.07-3,0-4.23-.5-4.15-3.9.21-9.27,0-9.28,9.21-9.28Z"/><path class="cls-6" d="M20.44,37a7.22,7.22,0,0,1,4.68,1.72Q41.33,50.24,57.54,61.81c2.42,1.73,4,3.94,3.39,7a6.24,6.24,0,0,1-4.76,4.94c-2.21.62-4.08-.23-5.77-1.42Q33.87,60.64,17.4,48.8c-2.54-1.83-4-4.23-2.92-7.5A5.94,5.94,0,0,1,20.44,37Z"/><path class="cls-6" d="M90.17,45.64a6.47,6.47,0,0,1-5.32,6.63c-3.13.52-6.07-1.27-7.08-4.84-1.93-6.85-3.59-13.78-5.37-20.68C70.93,21,69.39,15.31,68,9.56c-1-4,.82-7.3,4.36-8.34,3.38-1,6.71.72,7.77,4.66,3.45,12.82,6.67,25.71,10,38.57A5,5,0,0,1,90.17,45.64Z"/><path class="cls-6" d="M9.26,120.73c-3.69,0-6.41-2.18-6.87-5.42s1.43-6,5.05-7c7.58-2.06,15.22-3.89,22.83-5.8,4.92-1.23,9.84-2.49,14.78-3.64,2.74-.65,5.37-.37,7.24,2a6,6,0,0,1,.82,6.48A6.32,6.32,0,0,1,48.8,111c-12.76,3.26-25.55,6.42-38.33,9.6A6.51,6.51,0,0,1,9.26,120.73Z"/><path class="cls-6" d="M342.3,303.56a6.22,6.22,0,0,1-9.59,5.31,41.63,41.63,0,0,1-5.13-4q-11.71-9.71-23.39-19.47c-2.14-1.79-3.53-4-2.78-7a6.14,6.14,0,0,1,4.9-4.76,6.35,6.35,0,0,1,5.69,1.65q13.81,11.42,27.56,22.95A6.82,6.82,0,0,1,342.3,303.56Z"/><path class="cls-6" d="M283.45,311c0,5,.06,9.92,0,14.89-.07,4.51-2.56,7.26-6.37,7.28-3.64,0-6.33-2.58-6.4-6.9q-.24-15.44,0-30.86c.07-4.18,3-6.89,6.54-6.79s6.12,2.91,6.2,7.13C283.52,300.79,283.45,305.88,283.45,311Z"/><path class="cls-6" d="M331.4,250.14c-5.08,0-10.16.06-15.23,0-4.25-.06-7-2.53-7.16-6.12s2.72-6.43,7.16-6.47q15.24-.1,30.47,0c4.29,0,6.9,2.56,6.9,6.28s-2.63,6.22-6.9,6.3C341.56,250.21,336.48,250.14,331.4,250.14Z"/><path class="cls-3" d="M302.42,140.72c-14,18.07-43.62,20.66-61.86,5-14.63-12.54-19.66-28.7-14.26-47.08,5.33-18.1,18.26-28.52,36.92-31.6a41.82,41.82,0,0,1,6.14-.13c.93,1.11,1.81,2.26,2.79,3.32C290.48,90.21,300.17,113.86,302.42,140.72Z"/><path class="cls-1" d="M302.42,140.72c-2.25-26.86-11.94-50.51-30.27-70.46-1-1.06-1.86-2.21-2.79-3.32,16.84-.6,33.21,10.12,40.53,26.53C316.89,109.14,313.77,128.87,302.42,140.72Z"/><path class="cls-6" d="M187.7,269.64a13.08,13.08,0,0,0-2.17,0c-3.71.64-4.39-.94-4.68-4.53-.93-11.69-6.67-20.95-15.81-28.17-3.74-3-8.08-4.77-12.39-6.66-18.85-8.28-33.46-21.25-43.38-39.4a87.29,87.29,0,0,1-11-45.49A88.36,88.36,0,0,1,114.9,96.16a92.2,92.2,0,0,1,22.29-21.91c1.92-1.35,3-1.54,4.48.76,5.06,7.71,5.09,7.52-1.86,13.17C124.38,100.73,115,116.89,112,136.54c-3.19,20.79,1.54,39.91,13.91,56.8,8.08,11,18.35,19.74,31.32,24.89,16.3,6.47,28.17,17.44,34.06,34.28,1.67,4.78,2.06,9.85,2.77,14.84.25,1.74-.69,2.38-2.36,2.3C190.37,269.59,189,269.64,187.7,269.64Z"/><path class="cls-1" d="M110.36,233.31c-1.92,1.68-2.21,4.22-3.31,6.33-8.43,16.14-29.85,21.62-45.15,11.68a31.8,31.8,0,0,1-5.41-49.21c6.72-7,15.43-9.55,25-9.48,3.27,6.16,6.16,12.51,10,18.36A142.14,142.14,0,0,0,110.36,233.31Z"/><path class="cls-6" d="M194.08,291.93c0,2.05-.14,4.12,0,6.16.22,2.59-.53,3.66-3.37,3.58-11.62-.33-9.52,1.65-9.74-9.75v-.36c0-10.49,0-10.45,10.71-9.59,1.65.14,2.42.64,2.37,2.35C194,286.86,194.07,289.39,194.08,291.93Z"/></g></g></svg>