<svg xmlns="http://www.w3.org/2000/svg" viewBox="0 0 384 384"><defs><style>.cls-1{fill:#fff;}</style></defs><g id="Layer_2" data-name="Layer 2"><g id="Layer_1-2" data-name="Layer 1"><path class="cls-1" d="M0,86.23V0H384V86.23l-2.91-8.94-116.2,115,116,115c1-3,2.06-6.28,3.12-9.54V384H0V297.74l3,8.93,116.1-115-116-115ZM19.35,59.68c1.69,1.78,2.45,2.6,3.23,3.38L181.4,222.39c6.94,7,14.27,7,21.21,0L361.43,63.08c.85-.86,1.65-1.78,2.71-2.92A37,37,0,0,0,347.8,57Q192,57,36.24,57a25.83,25.83,0,0,0-4.49.1C27.88,57.79,24,58.68,19.35,59.68ZM248.2,208.89c-9.67,9.61-19.79,19.63-29.88,29.68-15.57,15.51-37.11,15.52-52.64,0q-13.77-13.78-27.52-27.61c-.93-.94-1.94-1.81-2.25-2.1l-116,114.9c5.33,2.74,10.7,3.29,16.22,3.29Q192,327,348,327a23.88,23.88,0,0,0,4.48-.12c3.83-.72,7.62-1.63,12.2-2.64Z"/><path d="M0,86.23l3.09-9.54,116,115L3,306.67l-3-8.93Z"/><path d="M384,297.74c-1.06,3.26-2.13,6.52-3.12,9.54l-116-115,116.2-115L384,86.23Z"/><path d="M19.35,59.68c4.69-1,8.53-1.89,12.4-2.6a25.83,25.83,0,0,1,4.49-.1Q192,57,347.8,57a37,37,0,0,1,16.34,3.21c-1.06,1.14-1.86,2.06-2.71,2.92L202.61,222.4c-6.94,7-14.27,6.95-21.21,0L22.58,63.06C21.8,62.28,21,61.46,19.35,59.68Z"/><path d="M248.2,208.89,364.65,324.23c-4.58,1-8.37,1.92-12.2,2.64A23.88,23.88,0,0,1,348,327Q192,327,36.1,327c-5.52,0-10.89-.55-16.22-3.29l116-114.9c.31.29,1.32,1.16,2.25,2.1q13.77,13.8,27.52,27.61c15.53,15.56,37.07,15.55,52.64,0C228.41,228.52,238.53,218.5,248.2,208.89Z"/></g></g></svg>