<svg xmlns="http://www.w3.org/2000/svg" viewBox="0 0 384 384"><defs><style>.cls-1{fill:#fff;}</style></defs><g id="Layer_2" data-name="Layer 2"><g id="Layer_1-2" data-name="Layer 1"><path class="cls-1" d="M0,0H384V384H0ZM282.33,360.16c2.87-1.6,7.25-3.63,11.2-6.3a355.26,355.26,0,0,0,49.56-40.5,169,169,0,0,0,15-17.16c3-3.83,2.59-7.19-.57-10.94a38.61,38.61,0,0,0-7.07-6.63c-21-14.91-42.77-28.59-66-39.83-14.15-6.85-16.42-6.16-26.81,5.76-6,6.88-12.13,13.61-18.14,20.47-1.51,1.72-3,2-5.21,1.39-23-6.39-43.31-18-61.48-33.19-26.19-22-44.64-49.23-54.92-81.94-1-3.23-.73-5.54,2-7.83,7-5.9,13.73-12,20.55-18,10.79-9.58,11.39-11.8,5.26-24.74-11.37-24-25.57-46.32-40.91-67.93a35.15,35.15,0,0,0-6.23-6.44c-3.3-2.75-7-3.16-10.69-.57a74.83,74.83,0,0,0-7.41,5.71C60.78,49.57,44.13,70.25,28.86,92.14c-4.44,6.36-5.2,12.73-3.86,20.14,4.1,22.58,12.1,43.73,22.82,63.89,24.63,46.31,58.21,85.26,98.47,118.6,29.05,24.05,60.53,44.06,96.36,56.59A160,160,0,0,0,282.33,360.16Zm77.46-180.31c.48-88.39-74.35-157.22-155.57-155.48V47.89c36.26.81,67.52,13.36,93.08,39s38,56.89,38.83,93Zm-59.92,0c-.17-59.6-52.39-98.05-95.67-95.24v23.32c19.72.53,36.7,7.33,50.61,21.2s20.72,31.11,21.33,50.72Z"/><path d="M282.33,360.16a160,160,0,0,1-39.68-8.8c-35.83-12.53-67.31-32.54-96.36-56.59C106,261.43,72.45,222.48,47.82,176.17,37.1,156,29.1,134.86,25,112.28c-1.34-7.41-.58-13.78,3.86-20.14C44.13,70.25,60.78,49.57,80.45,31.45a74.83,74.83,0,0,1,7.41-5.71c3.67-2.59,7.39-2.18,10.69.57a35.15,35.15,0,0,1,6.23,6.44c15.34,21.61,29.54,43.94,40.91,67.93,6.13,12.94,5.53,15.16-5.26,24.74-6.82,6-13.6,12.14-20.55,18-2.69,2.29-3,4.6-2,7.83,10.28,32.71,28.73,60,54.92,81.94,18.17,15.24,38.44,26.8,61.48,33.19,2.25.62,3.7.33,5.21-1.39,6-6.86,12.16-13.59,18.14-20.47,10.39-11.92,12.66-12.61,26.81-5.76,23.21,11.24,45,24.92,66,39.83a38.61,38.61,0,0,1,7.07,6.63c3.16,3.75,3.55,7.11.57,10.94a169,169,0,0,1-15,17.16,355.26,355.26,0,0,1-49.56,40.5C289.58,356.53,285.2,358.56,282.33,360.16Z"/><path d="M359.79,179.85H336.13c-.83-36.12-13.29-67.43-38.83-93S240.48,48.7,204.22,47.89V24.37C285.44,22.63,360.27,91.46,359.79,179.85Z"/><path d="M299.87,179.83H276.14c-.61-19.61-7.33-36.76-21.33-50.72s-30.89-20.67-50.61-21.2V84.59C247.48,81.78,299.7,120.23,299.87,179.83Z"/></g></g></svg>