<svg xmlns="http://www.w3.org/2000/svg" viewBox="0 0 512 512"><defs><style>.cls-1{fill:#fefefe;}.cls-2{fill:#549ffe;}.cls-3{fill:#3e4b5a;}.cls-4{fill:#feccbe;}.cls-5{fill:#fcbba8;}.cls-6{fill:#576574;}.cls-7{fill:#fdc957;}.cls-8{fill:#f3b538;}.cls-9{fill:#fdc958;}.cls-10{fill:#348dee;}.cls-11{fill:#f3b63a;}.cls-12{fill:#febdab;}</style></defs><g id="Layer_2" data-name="Layer 2"><g id="Layer_1-2" data-name="Layer 1"><path class="cls-1" d="M.1,267Q.1,135.54,0,4.09C0,.67.67,0,4.09,0Q256,.17,507.91,0c3.42,0,4.09.67,4.09,4.09q-.18,132-.1,263.91a42.75,42.75,0,0,0-2.83-3.44Q463.2,218.74,417.28,173c-3.34-3.47-6.61-7-10-10.37-3.87-3.78-7.44-3.83-11.26,0q-27.6,27.48-55.06,55.09c-4,4-3.87,7,.12,11.17,3.32,3.5,6.73,6.91,10.1,10.36-4.43,4.5-8.79,9.06-13.31,13.46-7,6.85-15,11.33-25.31,10.37-15.24-1.4-29.56,2.18-43.46,8.3-4.77,2.1-9.44,5-15,4.83-18.7-8.77-37.95-15.13-59-13.14a17.33,17.33,0,0,1-9.57-2.29c-10-5.1-16.94-13.75-24.47-21.7,2.88-3,5.74-6,8.64-8.94,5.56-5.64,5.61-8.18.09-13.71q-26.09-26.13-52.21-52.21c-5.91-5.9-8.22-5.92-14-.09q-40.76,40.73-81.49,81.47c-2.7,2.69-5.27,5.5-7.91,8.25ZM445.18,42c-2.86-8.34-7.66-15.75-11.34-23.71-1.16-2.52-2.88-4.78-5.81-4.81-3.18,0-4.81,2.46-6.13,5.1-4.72,9.49-9.5,19-14.25,28.42l-3.71,2.09c-10.86,1.4-21.75,2.59-32.55,4.3-5.49.87-6.64,5.84-2.45,10,6.37,6.34,12.72,12.74,19.57,18.54,4.66,4,5.25,8.3,4.13,13.75-1.7,8.28-3.17,16.62-4.54,25-1,6.31,2.89,9.73,8.35,7,10-4.93,19.71-10.3,29.55-15.49,2.64-.42,4.86.71,7.09,1.87q12.62,6.54,25.26,13c2.47,1.26,5.1,1.94,7.55.21,2.61-1.85,2.15-4.65,1.68-7.31-1.59-9.16-3-18.36-4.93-27.44-.82-3.83.28-6.35,2.91-8.82,7-6.6,14-13.29,21-20,1.9-1.81,3.21-4,2.34-6.67s-3.38-3.53-5.9-3.89c-7.89-1.12-15.77-2.26-23.69-3.17C453.36,49.37,447.69,48.53,445.18,42ZM60.07,49.08c-10.19,1.34-20.39,2.72-30.59,4-2.95.37-5.65,1-6.73,4.2s1.05,5,3,6.85C32,70.13,38,76.37,44.6,81.94c4.65,3.93,5.3,8.26,4.14,13.75C47,103.8,45.64,112,44.27,120.16c-.43,2.59-.79,5.35,1.76,7.35,2.16,1.69,4.44,1.31,6.55.22,9.88-5.13,19.7-10.36,29.54-15.55,2.64-.39,4.86.74,7.1,1.9q12.86,6.66,25.74,13.26c2.28,1.17,4.67,1.9,7,.09s2.21-4.27,1.75-6.83c-1.64-9.33-3-18.7-5-28-.81-3.82.21-6.37,2.86-8.85,7.05-6.61,14-13.3,21-20,1.89-1.81,3.22-3.95,2.37-6.68s-3.37-3.53-5.9-3.89C131.19,52.1,123.29,51,115.37,50c-5.87-.71-11.63-1.42-14.11-8-2.71-8-7.32-15.19-10.87-22.84-1.3-2.81-2.87-5.62-6.26-5.67s-5,2.75-6.36,5.52c-4.64,9.35-9.35,18.65-14,28Zm164.77,9a20.82,20.82,0,0,1-7,2.2C211.9,61,206,62,200,62.92c-9,1.16-18.09,2.27-27.13,3.5-3.77.51-7.17,1.82-8.47,5.9s1,6.91,3.79,9.55c10.94,10.45,21.82,21,32.79,31.4a10,10,0,0,1,3.32,9.81c-2.76,15.16-5.3,30.35-8,45.53-.6,3.35-.11,6.33,2.6,8.58a7.34,7.34,0,0,0,8.38,1.15c7.69-3.88,15.61-7.31,22.85-12,6.1-3,12.36-5.79,18.26-9.18,5.34-3.08,10-2.81,15.39.09,13,7,26.28,13.61,39.43,20.42,3.21,1.66,6.42,2.15,9.36-.22s3.54-5.23,2.82-8.93c-2.25-11.57-4.48-23.16-6.15-34.82-2.62-18.21-5.74-13.19,8.95-27.43,8.84-8.57,17.78-17,26.66-25.58,2.28-2.2,3.71-4.75,2.68-8A7.79,7.79,0,0,0,340.64,67c-1.31-.18-2.6-.56-3.91-.75-14.3-2-28.59-4.16-42.92-6-4.81-.61-7.73-3-9.87-7.2-3.89-7.69-7.21-15.68-11.93-22.94-2.29-6.95-5.85-13.33-9.54-19.56-2.9-4.89-9.67-4.69-13-.06a38.07,38.07,0,0,0-2.59,4.8Q235.86,36.63,224.84,58Z"/><path class="cls-1" d="M511.9,272q0,118,.1,235.92c0,3.42-.67,4.09-4.09,4.09Q256,511.84,4.09,512C.67,512,0,511.33,0,507.91Q.18,390.45.1,273q10,10,20.08,19.94,18.56,18.51,37.1,37c4.84,4.82,7.72,4.79,12.6-.05,3.18-3.16,6.25-6.43,9.36-9.65a2.81,2.81,0,0,0,.9-.3c3.47,3.34,6.68,7,10.46,9.95,10.64,8.27,14.65,19.43,14.3,32.34-.33,12.55,4.91,22.16,13.61,30.79q53,52.53,105.55,105.44c1.06,1.06,2.09,2.16,3.23,3.12,8.09,6.77,20.21,5,24.86-3.64,1.77-1.2,2.12-3.17,2.92-5,1.84-4.12-.41-8.09-.08-12.12,5.79,5.63,11.56,11.29,17.36,16.91,8.17,7.91,19.58,7.13,26.69-1.82,4.66-5.06,2.5-11.3,2.93-17.09,1.72,1.55,3.4,3.13,5.15,4.64,9.22,8,23.07,4.41,26-3.56,4.59-7.21,3.89-14.88-1.88-21.32-1.28-1.43-3.31-2.39-3.26-4.75,7.92,1.3,15.11.45,20.07-6.88,3.18-3.41,3.17-7.63,3-11.88,13.69-13.59,27.1-27.47,41.17-40.65,10.52-9.85,16-21,15-35.7a29.85,29.85,0,0,1,8.1-22.39c5.28-5.73,11.08-11,16.65-16.48,3.34,3.21,6.7,6.4,10,9.63,5.13,5,8,5.07,13,.06q24-23.89,47.86-47.85C505.89,278.6,508.86,275.25,511.9,272Z"/><path class="cls-2" d="M511.9,272c-3,3.26-6,6.61-9.15,9.77q-23.89,24-47.86,47.85c-5,5-7.86,4.95-13-.06-3.31-3.23-6.67-6.42-10-9.63q-13.29-13.49-26.59-27Q378.62,266,351.87,239.17a10.08,10.08,0,0,1,3.36-8q27.57-27.45,55-55a9.47,9.47,0,0,1,7-3.24q45.9,45.8,91.79,91.61A42.75,42.75,0,0,1,511.9,268Z"/><path class="cls-3" d="M79.24,320.27c-3.11,3.22-6.18,6.49-9.36,9.65-4.88,4.84-7.76,4.87-12.6.05q-18.58-18.48-37.1-37Q10.16,282.94.1,273v-6L14,253.78c.87,1.41,1.5,3,2.63,4.18Q47.9,289.17,79.24,320.27Z"/><path class="cls-4" d="M255,480.89c-.33,4,1.92,8,.08,12.12-.8,1.79-1.15,3.76-2.92,4.95-1.5-1.3-3.08-2.51-4.48-3.91Q193.09,439.51,138.49,385c-9.73-9.68-14.73-20.94-14.53-34.71a98.89,98.89,0,0,0-1.3-15.81c-1.23-8.26-6.48-14.29-11.82-20.28-3.93-4.41-9.37-7.48-11.81-13.23Q129.54,269.53,161,239c7.53,8,14.43,16.6,24.47,21.7A17.33,17.33,0,0,0,195,263c21.1-2,40.35,4.37,59,13.14-.15,1.64-1.47,2.1-2.69,2.6-16.42,6.71-32.83,13.45-49.29,20.07-8,3.23-12.32,10.24-11,18.45s8.18,13.76,17,13.68c10.11-.08,20.06-1.92,30-3.64,6.78-1.19,12.46-1.4,16.9,5,3.58,5.19,8.32,9.45,12.79,13.91q38.85,38.81,77.69,77.61c3.24,3.22,5.24,6.77,5.56,11.3.2,4.25.21,8.47-3,11.88-9.34-11-20.13-20.72-30.05-31.23C299,395.7,279.1,376.52,259.51,357c-2.91-2.89-6.39-3.95-10.45-2.11-8.11,3.69-8.84,11.63-1.58,19Q283.2,410.19,319,446.4c2.2,2.22,4.63,4.22,6.95,6.32a1.83,1.83,0,0,0,2.07,1.21l0,0c-.05,2.36,2,3.32,3.26,4.75,5.77,6.44,6.47,14.11,1.88,21.32-1.38-1.19-2.86-2.27-4.13-3.57-13-13.33-26.3-26.35-39.13-39.86C272.2,418,253.72,400.16,235.59,382c-.82-.83-1.63-1.67-2.48-2.47-3.34-3.11-7.39-4.24-11.39-2.2-3.79,1.92-6.28,5.07-5.82,10.05.37,3.89,2.54,6.39,5,8.85q38.88,39.45,77.82,78.86c.81.82,1.51,1.75,2.27,2.63l1.06,1.18,0-.05c-.43,5.79,1.73,12-2.93,17.09-1.32-1.49-2.56-3-4-4.45C281,477.39,266.42,463.68,252.86,449c-14.59-15.74-30.27-30.38-45.08-45.88a10.58,10.58,0,0,0-12.35-2.57c-4.44,1.88-6.35,6.12-5.38,11.17.62,3.27,2.84,5.52,5.06,7.77q28.68,29.16,57.34,58.34a22.51,22.51,0,0,1,1.53,1.94l1.06,1.13Z"/><path class="cls-5" d="M351,435.14c-.32-4.53-2.32-8.08-5.56-11.3q-38.93-38.71-77.69-77.61c-4.47-4.46-9.21-8.72-12.79-13.91-4.44-6.42-10.12-6.21-16.9-5-9.9,1.72-19.85,3.56-30,3.64-8.86.08-15.71-5.52-17-13.68s3-15.22,11-18.45c16.46-6.62,32.87-13.36,49.29-20.07,1.22-.5,2.54-1,2.69-2.6,5.57.17,10.24-2.73,15-4.83,13.9-6.12,28.22-9.7,43.46-8.3,10.35,1,18.3-3.52,25.31-10.37,4.52-4.4,8.88-9,13.3-13.46l.37,0,.38,0Q378.59,266,405.3,292.94q13.33,13.46,26.59,27c-5.57,5.48-11.37,10.75-16.65,16.48a29.85,29.85,0,0,0-8.1,22.39c1,14.7-4.44,25.85-15,35.7C378.11,407.67,364.7,421.55,351,435.14Z"/><path class="cls-6" d="M161,239Q129.58,269.58,99,301a243.75,243.75,0,0,0-18.89,19,2.81,2.81,0,0,1-.9.3Q47.94,289.13,16.65,258c-1.13-1.13-1.76-2.77-2.63-4.18,2.64-2.75,5.21-5.56,7.91-8.25q40.72-40.75,81.49-81.47c5.83-5.83,8.14-5.81,14,.09q26.13,26.1,52.21,52.21c5.52,5.53,5.47,8.07-.09,13.71C166.69,233,163.83,236,161,239Z"/><path class="cls-7" d="M272,30.07c4.72,7.26,8,15.25,11.93,22.94,2.14,4.24,5.06,6.59,9.87,7.2,14.33,1.84,28.62,4,42.92,6,1.31.19,2.6.57,3.91.75a7.79,7.79,0,0,1,6.91,5.65c1,3.29-.4,5.84-2.68,8-8.88,8.53-17.82,17-26.66,25.58-14.69,14.24-11.57,9.22-8.95,27.43,1.67,11.66,3.9,23.25,6.15,34.82.72,3.7,0,6.67-2.82,8.93s-6.15,1.88-9.36.22c-13.15-6.81-26.42-13.37-39.43-20.42-5.37-2.9-10.05-3.17-15.39-.09-5.9,3.39-12.16,6.15-18.26,9.18a12.25,12.25,0,0,1-.06-2.49c2.52-14.15,5.14-28.28,7.62-42.45,1.08-6.15.66-11.84-5-16.15-3.8-2.92-7.2-6.38-10.72-9.65-5.72-5.32-10.92-11.14-17-16.14-8-6.56-8.42-9.08-5.05-16.5,6-.92,11.9-1.93,17.88-2.69a20.82,20.82,0,0,0,7-2.2c9.42,0,18.57-2.32,27.86-3.44,4.34-.52,7.41-3.22,9.28-7.37,2.1-4.67,4.52-9.2,6.86-13.77C269.56,32.05,269.85,30.16,272,30.07Z"/><path class="cls-8" d="M200,62.92c-3.37,7.42-2.9,9.94,5.05,16.5,6.06,5,11.26,10.82,17,16.14,3.52,3.27,6.92,6.73,10.72,9.65,5.62,4.31,6,10,5,16.15-2.48,14.17-5.1,28.3-7.62,42.45a12.25,12.25,0,0,0,.06,2.49c-7.24,4.73-15.16,8.16-22.85,12a7.34,7.34,0,0,1-8.38-1.15c-2.71-2.25-3.2-5.23-2.6-8.58,2.68-15.18,5.22-30.37,8-45.53a10,10,0,0,0-3.32-9.81c-11-10.43-21.85-21-32.79-31.4-2.76-2.64-5.12-5.39-3.79-9.55s4.7-5.39,8.47-5.9C181.91,65.19,191,64.08,200,62.92Z"/><path class="cls-9" d="M101.26,42c2.48,6.6,8.24,7.31,14.11,8,7.92,1,15.82,2.06,23.71,3.19,2.53.36,5,1.1,5.9,3.89s-.48,4.87-2.37,6.68c-7,6.69-13.93,13.38-21,20-2.65,2.48-3.67,5-2.86,8.85,1.94,9.26,3.32,18.63,5,28,.46,2.56.58,5-1.75,6.83s-4.74,1.08-7-.09q-12.9-6.59-25.74-13.26c-2.24-1.16-4.46-2.29-7.1-1.9-.47-6.39,1.51-12.44,2.68-18.59,1.39-7.23,2.59-14.08-4.81-19.14-6.91-4.72-12-11.46-18.14-17-2.71-2.46-3.68-5-1.78-8.34L63.74,47C76.44,46.77,88.8,44.05,101.26,42Z"/><path class="cls-9" d="M403.94,49.1,407.65,47c12.7-.26,25.07-3,37.53-5,2.51,6.52,8.18,7.36,14.09,8,7.92.91,15.8,2.05,23.69,3.17,2.52.36,5,1.11,5.9,3.89s-.44,4.86-2.34,6.67c-7,6.68-13.92,13.37-21,20-2.63,2.47-3.73,5-2.91,8.82,1.94,9.08,3.34,18.28,4.93,27.44.47,2.66.93,5.46-1.68,7.31-2.45,1.73-5.08,1.05-7.55-.21q-12.64-6.49-25.26-13c-2.23-1.16-4.45-2.29-7.09-1.87.13-8,2.06-15.69,3.57-23.45.93-4.75.43-8.89-3.58-12.13-7-5.63-13-12.31-19.55-18.43C403.58,55.5,402.11,52.87,403.94,49.1Z"/><path class="cls-8" d="M60.07,49.08c-1.9,3.31-.93,5.88,1.78,8.34C68,63,73.08,69.73,80,74.45c7.4,5.06,6.2,11.91,4.81,19.14-1.17,6.15-3.15,12.2-2.68,18.59-9.84,5.19-19.66,10.42-29.54,15.55-2.11,1.09-4.39,1.47-6.55-.22-2.55-2-2.19-4.76-1.76-7.35C45.64,112,47,103.8,48.74,95.69c1.16-5.49.51-9.82-4.14-13.75C38,76.37,32,70.13,25.71,64.12c-1.91-1.84-4-3.74-3-6.85s3.78-3.83,6.73-4.2C39.68,51.8,49.88,50.42,60.07,49.08Z"/><path class="cls-8" d="M403.94,49.1c-1.83,3.77-.36,6.4,2.5,9.09C413,64.31,419,71,426,76.62c4,3.24,4.51,7.38,3.58,12.13-1.51,7.76-3.44,15.47-3.57,23.45-9.84,5.19-19.58,10.56-29.55,15.49-5.46,2.7-9.38-.72-8.35-7,1.37-8.34,2.84-16.68,4.54-25,1.12-5.45.53-9.8-4.13-13.75-6.85-5.8-13.2-12.2-19.57-18.54-4.19-4.17-3-9.14,2.45-10C382.19,51.69,393.08,50.5,403.94,49.1Z"/><path class="cls-10" d="M351.87,239.17l-.38,0-.37,0c-3.36-3.45-6.77-6.86-10.09-10.36-4-4.21-4.14-7.12-.12-11.17Q368.36,190,396,162.56c3.82-3.81,7.39-3.76,11.26,0,3.44,3.36,6.71,6.9,10,10.37a9.47,9.47,0,0,0-7,3.24q-27.5,27.54-55,55A10.08,10.08,0,0,0,351.87,239.17Z"/><path class="cls-8" d="M272,30.07c-2.16.09-2.45,2-3.17,3.38-2.34,4.57-4.76,9.1-6.86,13.77-1.87,4.15-4.94,6.85-9.28,7.37C243.41,55.71,234.26,58,224.84,58q11-21.39,22-42.78a38.07,38.07,0,0,1,2.59-4.8c3.33-4.63,10.1-4.83,13,.06C266.16,16.74,269.72,23.12,272,30.07Z"/><path class="cls-11" d="M445.18,42c-12.46,2-24.83,4.74-37.53,5,4.75-9.47,9.53-18.93,14.25-28.42,1.32-2.64,3-5.12,6.13-5.1,2.93,0,4.65,2.29,5.81,4.81C437.52,26.26,442.32,33.67,445.18,42Z"/><path class="cls-11" d="M101.26,42c-12.46,2-24.82,4.75-37.52,5,4.68-9.32,9.39-18.62,14-28,1.38-2.77,3-5.58,6.36-5.52s5,2.86,6.26,5.67C93.94,26.83,98.55,34,101.26,42Z"/><path class="cls-12" d="M80.14,320A243.75,243.75,0,0,1,99,301c2.44,5.75,7.88,8.82,11.81,13.23,5.34,6,10.59,12,11.82,20.28a98.89,98.89,0,0,1,1.3,15.81c-.2,13.77,4.8,25,14.53,34.71q54.72,54.39,109.18,109.06c1.4,1.4,3,2.61,4.48,3.91-4.65,8.63-16.77,10.42-24.86,3.65-1.14-1-2.17-2.06-3.23-3.12q-52.74-52.74-105.55-105.44c-8.7-8.63-13.94-18.24-13.61-30.79.35-12.91-3.66-24.07-14.3-32.34C86.82,327,83.61,323.31,80.14,320Z"/><path class="cls-12" d="M301,477.76c-.76-.88-1.46-1.81-2.27-2.63q-38.91-39.44-77.82-78.86c-2.43-2.46-4.6-5-5-8.85-.46-5,2-8.13,5.82-10.05,4-2,8.05-.91,11.39,2.2.85.8,1.66,1.64,2.48,2.47,18.13,18.12,36.61,35.91,54.26,54.5C302.68,450.05,316,463.07,329,476.4c1.27,1.3,2.75,2.38,4.13,3.57-2.92,8-16.77,11.56-26,3.56-1.75-1.51-3.43-3.09-5.15-4.64l0,.05C301.67,478.54,301.31,478.15,301,477.76Z"/><path class="cls-12" d="M254,479.81a22.51,22.51,0,0,0-1.53-1.94q-28.66-29.19-57.34-58.34c-2.22-2.25-4.44-4.5-5.06-7.77-1-5.05.94-9.29,5.38-11.17a10.58,10.58,0,0,1,12.35,2.57c14.81,15.5,30.49,30.14,45.08,45.88,13.56,14.64,28.12,28.35,42.22,42.49,1.4,1.41,2.64,3,4,4.45-7.11,8.95-18.52,9.73-26.69,1.82-5.8-5.62-11.57-11.28-17.36-16.91l0,.05Z"/><path class="cls-12" d="M325.93,452.72c-2.32-2.1-4.75-4.1-6.95-6.32q-35.79-36.21-71.5-72.48c-7.26-7.38-6.53-15.32,1.58-19,4.06-1.84,7.54-.78,10.45,2.11C279.1,376.52,299,395.7,318,415.79,327.91,426.3,338.7,436,348,447c-5,7.33-12.15,8.18-20.07,6.88l0,0C327.62,453,326.71,453,325.93,452.72Z"/><path class="cls-1" d="M325.93,452.72c.78.24,1.69.27,2.07,1.21A1.83,1.83,0,0,1,325.93,452.72Z"/><path class="cls-1" d="M301,477.76c.35.39.71.78,1.06,1.18Z"/><path class="cls-1" d="M254,479.81l1.06,1.13Z"/></g></g></svg>