<svg xmlns="http://www.w3.org/2000/svg" viewBox="0 0 409.6 409.6"><defs><style>.cls-1{fill:#fefefe;}.cls-2{fill:#fec633;}.cls-3{fill:#fee265;}</style></defs><g id="Layer_2" data-name="Layer 2"><g id="Layer_1-2" data-name="Layer 1"><path class="cls-1" d="M409.52,380.76c0,8.92-.06,17.83.05,26.74,0,1.72-.33,2.35-2.05,2a8.43,8.43,0,0,0-1.59,0q-201.14,0-402.26.07c-3,0-3.67-.67-3.67-3.67Q.14,204.78,0,3.67C0,.67.67,0,3.67,0Q204.79.14,405.93,0c3,0,3.68.67,3.67,3.67-.12,37.37-.08,74.75-.08,112.13-2.95-7.43-8.69-10.39-16.38-10.26-3.32.06-6.64,0-9.95,0-10.06.19-20.14-.46-30.19.35-14.21-.64-28.44-.7-42.62,0-9.4.43-13.46,5.74-13.46,15.3q0,47.66,0,95.29,0,79.95,0,159.89c0,8.37,5,14,12.88,14.05,14.35.12,28.7,0,43.05-.06,13.1.18,26.2.2,39.29.6C400.25,391.19,406.26,388.49,409.52,380.76Zm-352,9.7a5.94,5.94,0,0,0,1.52.38c13.29,0,26.58.06,39.86,0a18,18,0,0,0,5.82-1c6.21-2.18,8.9-6.72,8.9-14.78q0-78.52,0-157.06c0-4.25.12-8.51,0-12.75-.31-7.74-5.6-13.36-13.27-13.46-14.21-.19-28.43,0-42.65.06-13.82,0-27.64-.1-41.46-.09-9.75,0-15.26,5.58-15.26,15.36q0,84.33,0,168.67c0,9.46,5.2,14.66,14.72,14.69C29.55,390.49,43.51,390.46,57.47,390.46ZM205.17,20q-21.54,0-43.09-.06a12.68,12.68,0,0,0-10.56,5.38c-2.58,3.36-2.85,7.33-2.85,11.36V373.82c0,.93,0,1.86,0,2.79.28,7.14,5.53,14.27,14.59,14,13.95-.46,27.93-.15,41.89-.17,13.15.16,26.3.39,39.45.45,12,.06,17.15-5.15,17.15-17.17v-337c0-1.06,0-2.13,0-3.19-.36-7.56-4.87-12.46-12.37-13.66-4.65-.75-9.28-.11-13.92-.09C225.36,19.8,215.27,19.9,205.17,20Z"/><path class="cls-2" d="M409.52,380.76c-3.26,7.73-9.27,10.43-17.37,10.17-13.09-.4-26.19-.42-39.29-.6q0-139.62,0-279.24c0-1.73.08-3.45.12-5.18,10.05-.81,20.13-.16,30.19-.35,3.31-.06,6.63,0,9.95,0,7.69-.13,13.43,2.83,16.38,10.26Z"/><path class="cls-2" d="M205.17,20c10.1-.07,20.19-.17,30.29-.22,4.64,0,9.27-.66,13.92.09,7.5,1.2,12,6.1,12.37,13.66.06,1.06,0,2.13,0,3.19v337c0,12-5.12,17.23-17.15,17.17-13.15-.06-26.3-.29-39.45-.45Z"/><path class="cls-3" d="M205.17,20V390.4c-14,0-27.94-.29-41.89.17-9.06.31-14.31-6.82-14.59-14,0-.93,0-1.86,0-2.79V36.65c0-4,.27-8,2.85-11.36a12.68,12.68,0,0,1,10.56-5.38Q183.62,20,205.17,20Z"/><path class="cls-3" d="M353,105.91c0,1.73-.12,3.45-.12,5.18q0,139.62,0,279.24c-14.35,0-28.7.18-43.05.06-7.86-.07-12.88-5.68-12.88-14.05q0-79.95,0-159.89,0-47.64,0-95.29c0-9.56,4.06-14.87,13.46-15.3C324.56,105.21,338.79,105.27,353,105.91Z"/><path class="cls-3" d="M57.47,390.46c-14,0-27.92,0-41.87,0-9.52,0-14.72-5.23-14.72-14.69q0-84.33,0-168.67c0-9.78,5.51-15.35,15.26-15.36,13.82,0,27.64.06,41.46.09,0,1.86-.08,3.72-.08,5.58Q57.49,293.94,57.47,390.46Z"/><path class="cls-2" d="M57.47,390.46q0-96.52.05-193.06c0-1.86,0-3.72.08-5.58,14.22,0,28.44-.25,42.65-.06,7.67.1,13,5.72,13.27,13.46.17,4.24,0,8.5,0,12.75q0,78.54,0,157.06c0,8.06-2.69,12.6-8.9,14.78a18,18,0,0,1-5.82,1c-13.28.08-26.57.05-39.86,0A5.94,5.94,0,0,1,57.47,390.46Z"/></g></g></svg>