<svg xmlns="http://www.w3.org/2000/svg" viewBox="0 0 384 384"><defs><style>.cls-1{fill:#fefefe;}.cls-2{fill:#3e98d3;}.cls-3{fill:#f19b1f;}.cls-4{fill:#d15627;}.cls-5{fill:#d15728;}.cls-6{fill:#e37c26;}</style></defs><g id="Layer_2" data-name="Layer 2"><g id="Layer_1-2" data-name="Layer 1"><path class="cls-1" d="M383.93,187.5q0,96.72.07,193.43c0,2.57-.5,3.07-3.07,3.07Q192,383.88,3.07,384C.5,384,0,383.5,0,380.93Q.12,192,0,3.07C0,.5.5,0,3.07,0Q192,.12,380.93,0C383.5,0,384,.5,384,3.07q-.13,90.35-.07,180.68c-1.83-3.46-4.64-4.66-8.58-4.6-11.59.2-23.19.06-34.78.08-5.08,0-7.8,2.35-7.71,6.54.08,4,2.75,6.22,7.66,6.23,11.6,0,23.19-.11,34.79.07C379.21,192.13,382.07,191,383.93,187.5ZM173.25,265.39l18.1,12.11,71,48.82c.54,7.88,5.76,13,13.11,12.84s12.5-5.69,12.5-13.81q0-40.26,0-80.52c0-7.73.1-15.47.15-23.21a38.26,38.26,0,0,0,0-72c-.05-1.49-.16-3-.16-4.48q0-49.63,0-99.26c0-8.07-5.08-13.66-12.53-13.83-7.23-.17-12.53,5.05-13.08,12.91l-71,48.81-31.57,21.62q-41.57,0-83.14,0a61.06,61.06,0,0,0-8.23.38C30.67,120.87,4.81,152.11,6.7,190.16c1.81,36.35,33.3,66,69.68,65.64l.83,1.59a18.45,18.45,0,0,0,.19,2.24Q83.82,291.8,90.27,324c2.83,14.3,10.86,23.92,25.27,27.26,7.56,1.75,15.43,1.26,23.12.68,8.9-.68,13.54-7.81,11.74-16.74-3.18-15.71-6.23-31.45-9.33-47.17,6.36,0,12.73,0,19.09-.05s11-4.1,12.44-10.28C173.52,273.6,172.63,269.46,173.25,265.39ZM313.73,140.91a8.73,8.73,0,0,0,3.84-1.46c12.44-8.29,24.92-16.54,37.32-24.89,3.68-2.48,4.47-6.19,2.29-9.34s-5.86-3.61-9.54-1.18q-18.4,12.18-36.73,24.46a10.8,10.8,0,0,0-2.27,1.93,6,6,0,0,0-.68,7C309.14,139.77,311.27,140.65,313.73,140.91Zm-.29,89.42c-2.7.28-5,1.5-5.83,4.31-1,3.39.18,6,3.16,8,12.26,8.12,24.46,16.31,36.72,24.43,3.82,2.53,7.77,2,9.84-1.27s1.15-6.74-2.61-9.27q-18.45-12.39-37-24.67A7.87,7.87,0,0,0,313.44,230.33Zm56.79,0c3.88.05,6.21-1.48,7.07-4.84.82-3.21-.31-6.06-3.31-7.11q-19.92-7-40-13.4c-3.88-1.23-8,2.58-7.62,6.55.31,3.39,2.49,5.17,5.64,6.2,11.95,3.91,23.87,7.92,35.81,11.89C368.72,229.91,369.69,230.15,370.23,230.31ZM377.51,147a6.24,6.24,0,0,0-8.13-5.88c-13.16,4.19-26.25,8.61-39.29,13.14a6,6,0,0,0-3.37,7.74,6.22,6.22,0,0,0,7.76,4.14c12.9-4.19,25.75-8.53,38.6-12.86C376,152.32,377.36,150.06,377.51,147Z"/><path class="cls-2" d="M383.93,187.5c-1.86,3.45-4.72,4.63-8.62,4.57-11.6-.18-23.19,0-34.79-.07-4.91,0-7.58-2.23-7.66-6.23-.09-4.19,2.63-6.53,7.71-6.54,11.59,0,23.19.12,34.78-.08,3.94-.06,6.75,1.14,8.58,4.6Z"/><path class="cls-3" d="M76.38,255.8C40,256.18,8.51,226.51,6.7,190.16c-1.89-38,24-69.29,61.68-74.44a61.06,61.06,0,0,1,8.23-.38q41.56,0,83.14,0c0,2,0,4,0,6q0,67.2.05,134.39l-25.64.08H77.37ZM48,192h9.71c3.89-.24,6.15-2.67,6.08-6.54-.07-3.68-2.3-6.11-6-6.17q-9.7-.16-19.42,0c-3.75.07-6,2.47-6.07,6.13-.09,3.88,2.16,6.42,6,6.56C41.55,192.09,44.8,192,48,192Zm-.33,25.49c3.38,0,6.75.09,10.12,0a5.78,5.78,0,0,0,6-5.49c.36-3.7-1.18-6.49-4.75-6.86a103.33,103.33,0,0,0-22,0c-3.57.4-5.1,3.2-4.72,6.89a5.82,5.82,0,0,0,6,5.45C41.45,217.58,44.58,217.49,47.7,217.49Zm.11-51c3.12,0,6.24.11,9.36,0,4.35-.19,6.69-2.54,6.65-6.46s-2.4-6.21-6.74-6.25q-9-.07-18,0c-4.39,0-6.75,2.2-6.83,6.15s2.24,6.34,6.54,6.55C41.82,166.61,44.82,166.49,47.81,166.49Z"/><path class="cls-3" d="M262.35,326.32q-35.49-24.42-71-48.82c1.09-1.17.63-2.62.63-3.94q0-87.94,0-175.9c0-1.32.46-2.77-.66-3.93l71-48.81c0,1.25.11,2.49.11,3.74V322.57C262.46,323.82,262.39,325.07,262.35,326.32Z"/><path class="cls-4" d="M262.35,326.32c0-1.25.11-2.5.11-3.75V48.66c0-1.25-.08-2.49-.11-3.74.55-7.86,5.85-13.08,13.08-12.91,7.45.17,12.53,5.76,12.53,13.83q0,49.62,0,99.26c0,1.49.11,3,.16,4.48q0,36,0,72c-.05,7.74-.14,15.48-.15,23.21q0,40.26,0,80.52c0,8.12-5,13.66-12.5,13.81S262.89,334.2,262.35,326.32Z"/><path class="cls-5" d="M77.37,255.82H134.2c.78,4,1.41,8.05,2.38,12,1.64,6.69,2.16,13.64,4.49,20.18,3.1,15.72,6.15,31.46,9.33,47.17,1.8,8.93-2.84,16.06-11.74,16.74-7.69.58-15.56,1.07-23.12-.68-14.41-3.34-22.44-13-25.27-27.26q-6.39-32.19-12.87-64.35a18.45,18.45,0,0,1-.19-2.24C77.26,256.87,77.32,256.34,77.37,255.82Z"/><path class="cls-4" d="M191.32,93.73c1.12,1.16.66,2.61.66,3.93q0,87.95,0,175.9c0,1.32.46,2.77-.63,3.94l-18.1-12.11c-4.13-3.7-8.92-6.46-13.41-9.66q0-67.2-.05-134.39c0-2,0-4,0-6Z"/><path class="cls-3" d="M288.12,221.62q0-36,0-72a38.26,38.26,0,0,1,0,72Z"/><path class="cls-6" d="M159.84,255.73c4.49,3.2,9.28,6,13.41,9.66-.62,4.07.27,8.21-.65,12.29-1.41,6.18-6.16,10.23-12.44,10.28s-12.73,0-19.09.05c-2.33-6.54-2.85-13.49-4.49-20.18-1-4-1.6-8-2.38-12Z"/><path class="cls-2" d="M313.73,140.91c-2.46-.26-4.59-1.14-5.77-3.5a6,6,0,0,1,.68-7,10.8,10.8,0,0,1,2.27-1.93q18.34-12.25,36.73-24.46c3.68-2.43,7.42-1.9,9.54,1.18s1.39,6.86-2.29,9.34c-12.4,8.35-24.88,16.6-37.32,24.89A8.73,8.73,0,0,1,313.73,140.91Z"/><path class="cls-2" d="M313.44,230.33a7.87,7.87,0,0,1,4.29,1.53q18.5,12.33,37,24.67c3.76,2.53,4.67,6.08,2.61,9.27s-6,3.8-9.84,1.27C335.23,259,323,250.76,310.77,242.64c-3-2-4.2-4.61-3.16-8C308.47,231.83,310.74,230.61,313.44,230.33Z"/><path class="cls-2" d="M370.23,230.31c-.54-.16-1.51-.4-2.44-.71-11.94-4-23.86-8-35.81-11.89-3.15-1-5.33-2.81-5.64-6.2-.37-4,3.74-7.78,7.62-6.55q20.12,6.38,40,13.4c3,1,4.13,3.9,3.31,7.11C376.44,228.83,374.11,230.36,370.23,230.31Z"/><path class="cls-2" d="M377.51,147c-.15,3-1.48,5.29-4.43,6.28-12.85,4.33-25.7,8.67-38.6,12.86a6.22,6.22,0,0,1-7.76-4.14,6,6,0,0,1,3.37-7.74c13-4.53,26.13-8.95,39.29-13.14A6.24,6.24,0,0,1,377.51,147Z"/><path class="cls-6" d="M77.37,255.82c-.05.52-.11,1.05-.16,1.57l-.83-1.59Z"/><path class="cls-4" d="M48,192c-3.23,0-6.48.09-9.71,0-3.87-.14-6.12-2.68-6-6.56.08-3.66,2.32-6.06,6.07-6.13q9.7-.15,19.42,0c3.74.06,6,2.49,6,6.17.07,3.87-2.19,6.3-6.08,6.54H48Z"/><path class="cls-4" d="M47.7,217.49c-3.12,0-6.25.09-9.37,0a5.82,5.82,0,0,1-6-5.45c-.38-3.69,1.15-6.49,4.72-6.89a103.33,103.33,0,0,1,22,0c3.57.37,5.11,3.16,4.75,6.86a5.78,5.78,0,0,1-6,5.49C54.45,217.58,51.08,217.49,47.7,217.49Z"/><path class="cls-4" d="M47.81,166.49c-3,0-6,.12-9,0-4.3-.21-6.63-2.63-6.54-6.55s2.44-6.12,6.83-6.15q9-.07,18,0c4.34,0,6.7,2.29,6.74,6.25s-2.3,6.27-6.65,6.46C54.05,166.6,50.93,166.49,47.81,166.49Z"/></g></g></svg>