<svg xmlns="http://www.w3.org/2000/svg" viewBox="0 0 409.6 409.6"><defs><style>.cls-1{fill:#fff;}</style></defs><g id="Layer_2" data-name="Layer 2"><g id="Layer_1-2" data-name="Layer 1"><path class="cls-1" d="M409.6,347.32V409.6H0V0H409.6V271.47a9.84,9.84,0,0,1-.69-1.82c-4-23.25-17.06-39.14-39.09-47.26-16.31-6-33.4-2.56-50.41-3.56a13.69,13.69,0,0,0,.26,2.43c3.61,10.45,4.4,21.27,4.38,32.23-.05,29.52.05,59.05-.05,88.57,0,12-.42,24.08-.64,35.87,18.33,0,37.59.44,56.81-.2,8.32-.28,15.12-5.23,20.73-11.52C405.77,360.76,407.9,354.17,409.6,347.32ZM205.2,378.53q40.7,0,81.4,0c9.27,0,13.68-4.41,13.68-13.67q0-58.07-.06-116.13a63.92,63.92,0,0,0-1.44-14.22c-6.42-27.67-29.31-45.92-57.87-46.13-23.8-.17-47.62-.1-71.42,0a59.35,59.35,0,0,0-13,1.36c-28.06,6.56-46.24,29.53-46.31,58.56-.1,38.71,0,77.42,0,116.12,0,9.8,4.28,14.08,14.08,14.08Q164.69,378.55,205.2,378.53Zm.11-346.65a71.12,71.12,0,0,0-71.09,70.28c-.32,39.11,32.14,71.82,71.07,71.6a71.44,71.44,0,0,0,70.89-71.38C276.12,63.73,244.18,32,205.31,31.88Zm-118,346.66c-.34-8.38-.91-16.18-.93-24-.1-34.86-.19-69.72.07-104.57.06-7.52,1.45-15.05,2.47-22.54.37-2.7,1.44-5.3,2.34-8.49-10.71,0-20.91-.22-31.1,0C25.61,219.88.86,245.35.8,280c0,20.62-.07,41.24,0,61.87.08,17.51,10,31.22,26.56,35.31,6.58,1.63,13.72,1.26,20.6,1.35C61.27,378.67,74.55,378.54,87.34,378.54ZM133.57,151.2c.33-28.9-23.21-52.77-52.42-53.14a53.06,53.06,0,0,0-53.64,52.79c-.22,29,23.52,53,52.87,53.27C109.23,204.41,133.23,180.53,133.57,151.2Zm249.32-.28a53.06,53.06,0,0,0-53.17-52.86c-29.31.06-53.15,24-52.89,53.06.27,29.32,24.19,53.19,53.11,53C359.23,203.92,383,180,382.89,150.92Z"/><path d="M409.6,347.32c-1.7,6.85-3.83,13.44-8.7,18.89-5.61,6.29-12.41,11.24-20.73,11.52-19.22.64-38.48.2-56.81.2.22-11.79.6-23.83.64-35.87.1-29.52,0-59.05.05-88.57,0-11-.77-21.78-4.38-32.23a13.69,13.69,0,0,1-.26-2.43c17,1,34.1-2.45,50.41,3.56,22,8.12,35.11,24,39.09,47.26a9.84,9.84,0,0,0,.69,1.82Z"/><path d="M205.2,378.53q-40.5,0-81,0c-9.8,0-14.07-4.28-14.08-14.08,0-38.7-.07-77.41,0-116.12.07-29,18.25-52,46.31-58.56a59.35,59.35,0,0,1,13-1.36c23.8-.13,47.62-.2,71.42,0,28.56.21,51.45,18.46,57.87,46.13a63.92,63.92,0,0,1,1.44,14.22q.18,58.07.06,116.13c0,9.26-4.41,13.66-13.68,13.67Q245.91,378.56,205.2,378.53Z"/><path d="M205.31,31.88c38.87.08,70.81,31.85,70.87,70.5a71.44,71.44,0,0,1-70.89,71.38c-38.93.22-71.39-32.49-71.07-71.6A71.12,71.12,0,0,1,205.31,31.88Z"/><path d="M87.34,378.54c-12.79,0-26.07.13-39.36-.06-6.88-.09-14,.28-20.6-1.35C10.82,373,.9,359.33.82,341.82.73,321.19.77,300.57.8,280c.06-34.6,24.81-60.07,59.39-60.95,10.19-.26,20.39,0,31.1,0-.9,3.19-2,5.79-2.34,8.49-1,7.49-2.41,15-2.47,22.54-.26,34.85-.17,69.71-.07,104.57C86.43,362.36,87,370.16,87.34,378.54Z"/><path d="M133.57,151.2c-.34,29.33-24.34,53.21-53.19,52.92-29.35-.3-53.09-24.23-52.87-53.27A53.06,53.06,0,0,1,81.15,98.06C110.36,98.43,133.9,122.3,133.57,151.2Z"/><path d="M382.89,150.92c.12,29.11-23.66,53-52.95,53.2-28.92.19-52.84-23.68-53.11-53-.26-29.08,23.58-53,52.89-53.06A53.06,53.06,0,0,1,382.89,150.92Z"/></g></g></svg>