<svg xmlns="http://www.w3.org/2000/svg" viewBox="0 0 384 384"><defs><style>.cls-1{fill:#fff;}</style></defs><g id="Layer_2" data-name="Layer 2"><g id="Layer_1-2" data-name="Layer 1"><path class="cls-1" d="M0,166.47V0H384V135.72H307.14c-8.77,0-13.13-4.36-13.14-13.1q0-36.37,0-72.75V46H180.2V338.24h4.6c61.37,0,122.73-.07,184.09.11,7,0,12.12-1.85,15.11-8.36v54H0V217.48c3,6.47,8.13,8.93,15.12,8.3a64.64,64.64,0,0,1,9.74,0,3.71,3.71,0,0,1,2.77,1.62c3.41,8.29,6.63,16.65,10.18,25.7-3,2.85-6.54,6.16-10,9.6-5.57,5.57-5.62,11.95-.13,17.47q15.06,15.15,30.22,30.23c5.68,5.66,12,5.62,17.74-.15,3.42-3.43,6.69-7,9.44-9.92,9,3.58,17.12,6.73,25.15,10.1a4.34,4.34,0,0,1,2.16,3.1c.25,4.11.08,8.24.11,12.37,0,7.72,4.63,12.28,12.42,12.31,9.87,0,19.74,0,29.62,0a27.38,27.38,0,0,0,2.77-.26v-67.9c-23.72,2.7-44.81-3.16-62.71-18.82s-27-35.67-27-59.46A75.26,75.26,0,0,1,89.45,137.6C108,118.5,130.8,111,157.29,113.86V45.76c-11.67,0-23.14-.21-34.6.08-5.76.15-10,5.13-10.16,11-.12,4.5.06,9-.1,13.5,0,1-.68,2.57-1.46,2.89C102.6,76.74,94.14,80,85.21,83.49c-2.95-3-6.21-6.48-9.57-9.83-5.76-5.75-12-5.8-17.74-.13Q42.75,88.6,27.68,103.76c-5.48,5.52-5.43,11.89.15,17.47,3.44,3.44,7,6.75,10,9.67-3.37,8.4-6.65,16.08-9.48,23.92-1,2.74-2.2,3.73-5,3.46s-5.51.16-8.24-.1C8.13,157.52,3,160,0,166.47Zm157.33-29.53a56.14,56.14,0,0,0-56.1,88.69c13.08,17.48,37.19,26.64,56,21.2V224.12c-15.87,4-29.16.33-38.62-13-7.91-11.15-8.63-23.51-1.79-35.36,9-15.66,23.19-20.1,40.48-16ZM316.77,53.38V112.9h59.52ZM157.48,192a11.24,11.24,0,1,0-11.19,11.19A11.36,11.36,0,0,0,157.48,192Z"/><path d="M384,330c-3,6.51-8.14,8.38-15.11,8.36-61.36-.18-122.72-.11-184.09-.11h-4.6V46H294v3.86q0,36.38,0,72.75c0,8.74,4.37,13.09,13.14,13.1H384ZM271.13,158.22q-27.9,0-55.81,0c-7.62,0-12.74,4.49-12.81,11.14s5.09,11.35,12.61,11.35H326.36c7.55,0,12.68-4.65,12.62-11.33s-5.15-11.16-12.79-11.16Q298.66,158.2,271.13,158.22Zm-.78,67.51q28.09,0,56.19,0c7.32,0,12.37-4.57,12.44-11.13s-5.06-11.33-12.58-11.36c-7,0-14,0-21,0q-45.14,0-90.27,0c-5.07,0-9.06,1.7-11.4,6.32-3.92,7.71,1.69,16.16,10.79,16.19C233.14,225.77,251.75,225.73,270.35,225.73Zm.43,45c18.6,0,37.21,0,55.81,0,5.26,0,9.27-2,11.44-6.86,3.46-7.7-2.31-15.65-11.31-15.65q-55.64,0-111.25,0c-7.85,0-13,4.57-13,11.37.08,6.64,5.21,11.12,12.83,11.12Q243.06,270.76,270.78,270.74ZM237,113.22c-7.61,0-15.22-.06-22.83,0-6.65.06-11.62,4.86-11.69,11.11s5,11.32,11.82,11.35q22.65.09,45.28,0c6.92,0,11.91-4.87,11.87-11.3s-5.05-11.12-12-11.17C252,113.18,244.51,113.22,237,113.22Z"/><path d="M0,166.47c3-6.48,8.13-8.95,15.11-8.29,2.73.26,5.52-.16,8.24.1s4-.72,5-3.46c2.83-7.84,6.11-15.52,9.48-23.92-3-2.92-6.6-6.23-10-9.67-5.58-5.58-5.63-12-.15-17.47Q42.76,88.6,57.9,73.53c5.69-5.67,12-5.62,17.74.13,3.36,3.35,6.62,6.8,9.57,9.83C94.14,80,102.6,76.74,111,73.28c.78-.32,1.43-1.88,1.46-2.89.16-4.5,0-9,.1-13.5.16-5.92,4.4-10.9,10.16-11,11.46-.29,22.93-.08,34.6-.08v68.1C130.8,111,108,118.5,89.45,137.6a75.26,75.26,0,0,0-21.88,54.19c0,23.79,9.12,43.8,27,59.46s39,21.52,62.71,18.82V338a27.38,27.38,0,0,1-2.77.26c-9.88,0-19.75,0-29.62,0-7.79,0-12.37-4.59-12.42-12.31,0-4.13.14-8.26-.11-12.37a4.34,4.34,0,0,0-2.16-3.1c-8-3.37-16.15-6.52-25.15-10.1-2.75,2.9-6,6.49-9.44,9.92-5.76,5.77-12.06,5.81-17.74.15Q42.76,295.36,27.69,280.2c-5.49-5.52-5.44-11.9.13-17.47,3.45-3.44,7-6.75,10-9.6-3.55-9-6.77-17.41-10.18-25.7a3.71,3.71,0,0,0-2.77-1.62,64.64,64.64,0,0,0-9.74,0C8.13,226.41,3,224,0,217.48Z"/><path d="M157.33,136.94v22.82c-17.29-4.11-31.44.33-40.48,16-6.84,11.85-6.12,24.21,1.79,35.36,9.46,13.34,22.75,17,38.62,13v22.71c-18.84,5.44-42.95-3.72-56-21.2a56.14,56.14,0,0,1,56.1-88.69Z"/><path d="M316.77,53.38l59.52,59.52H316.77Z"/><path d="M157.48,192a11.24,11.24,0,1,1-11.09-11.28A11.36,11.36,0,0,1,157.48,192Z"/><path class="cls-1" d="M271.13,158.22q27.54,0,55.06,0c7.64,0,12.74,4.48,12.79,11.16s-5.07,11.33-12.62,11.33H215.12c-7.52,0-12.67-4.69-12.61-11.35s5.19-11.14,12.81-11.14Q243.24,158.2,271.13,158.22Z"/><path class="cls-1" d="M270.35,225.73c-18.6,0-37.21,0-55.81,0-9.1,0-14.71-8.48-10.79-16.19,2.34-4.62,6.33-6.33,11.4-6.32q45.14.09,90.27,0c7,0,14,0,21,0,7.52,0,12.66,4.68,12.58,11.36s-5.12,11.12-12.44,11.13Q298.45,225.77,270.35,225.73Z"/><path class="cls-1" d="M270.78,270.74q-27.72,0-55.44,0c-7.62,0-12.75-4.48-12.83-11.12-.07-6.8,5.11-11.37,13-11.37q55.62,0,111.25,0c9,0,14.77,7.95,11.31,15.65-2.17,4.84-6.18,6.87-11.44,6.86C308,270.71,289.38,270.74,270.78,270.74Z"/><path class="cls-1" d="M237,113.22c7.48,0,15,0,22.45,0,6.95,0,12,4.76,12,11.17s-5,11.28-11.87,11.3q-22.63.09-45.28,0c-6.85,0-11.89-5-11.82-11.35s5-11,11.69-11.11C221.81,113.16,229.42,113.22,237,113.22Z"/></g></g></svg>