<svg xmlns="http://www.w3.org/2000/svg" viewBox="0 0 384 384"><defs><style>.cls-1{fill:#fff;}</style></defs><g id="Layer_2" data-name="Layer 2"><g id="Layer_1-2" data-name="Layer 1"><path class="cls-1" d="M0,0H384V384H0ZM155.18,212v5.14q0,59.43,0,118.86c0,7.84,1.83,9.64,9.77,9.65q21.56,0,43.12,0c10.66,0,11.89-1.21,11.89-11.74q0-58.68,0-117.36v-5h4.63c13.25,0,26.5,0,39.75,0,6.92,0,8.63-1.77,8.64-8.68q0-22.12,0-44.24c0-8.23-1.84-10-10.24-10.05-12.87,0-25.74,0-38.62,0-1.31,0-2.63-.12-4.19-.19,0-11.51-.15-22.62,0-33.72.21-11.76,4.85-16.19,16.6-16.37,10.12-.15,20.25-.15,30.37-.4,5.41-.13,7.48-2.15,7.51-7.21q.13-22.32,0-44.62c0-5-2.16-7.12-7.13-7.13-15,0-30-.37-45,.2-35.8,1.35-63.18,27.14-66.22,62.78-1.21,14.16-.69,28.46-.95,42.69,0,1.47,0,2.93,0,4.76h-4.45c-11.12,0-22.25,0-33.37,0-6,0-8.2,1.83-8.25,7.66q-.24,23.61,0,47.24c.05,5.85,2.09,7.64,8.21,7.7,10.25.11,20.5,0,30.75,0Z"/><path d="M155.18,212h-7.12c-10.25,0-20.5.07-30.75,0-6.12-.06-8.16-1.85-8.21-7.7q-.22-23.62,0-47.24c0-5.83,2.21-7.63,8.25-7.66,11.12-.05,22.25,0,33.37,0h4.45c0-1.83,0-3.29,0-4.76.26-14.23-.26-28.53.95-42.69,3-35.64,30.42-61.43,66.22-62.78,15-.57,30-.24,45-.2,5,0,7.11,2.15,7.13,7.13q.13,22.31,0,44.62c0,5.06-2.1,7.08-7.51,7.21-10.12.25-20.25.25-30.37.4-11.75.18-16.39,4.61-16.6,16.37-.19,11.1,0,22.21,0,33.72,1.56.07,2.88.19,4.19.19,12.88,0,25.75,0,38.62,0,8.4,0,10.23,1.82,10.24,10.05q0,22.11,0,44.24c0,6.91-1.72,8.66-8.64,8.68-13.25.06-26.5,0-39.75,0H220v5q0,58.68,0,117.36c0,10.53-1.23,11.73-11.89,11.74q-21.56,0-43.12,0c-7.94,0-9.77-1.81-9.77-9.65q0-59.43,0-118.86Z"/></g></g></svg>